<svg width="135" height="128" viewBox="0 0 135 128" fill="none" xmlns="http://www.w3.org/2000/svg">
<path fill-rule="evenodd" clip-rule="evenodd" d="M113.715 100.771C117.373 100.236 130.809 97.3223 132.509 100.494C130.625 102.806 116.482 103.556 113.715 100.771ZM111.588 99.3881L113.179 95.4364C115.818 95.2667 122.979 95.8065 125.088 96.9909C124.324 97.2551 117.031 97.8943 111.588 99.3877V99.3881ZM27.3199 102.927C33.1336 102.626 30.0462 105.1 40.4163 113.088C56.1558 125.213 78.2362 124.003 93.8554 112.429C102.05 106.358 103.502 102.104 108.035 95.0674L110.979 95.0583C110.799 99.9301 100.937 110.568 96.5738 114.277C90.4083 119.518 81.2435 123.271 72.694 124.494C63.0323 125.876 51.9634 123.679 44.538 119.477C39.4745 116.611 34.0647 112.656 30.5948 108.02C29.6552 106.765 27.4801 104.423 27.3203 102.927L27.3199 102.927ZM33.1662 102.517C55.0227 101.359 80.966 93.4309 105.345 95.0105C104.694 97.5694 101.587 101.602 100.118 103.369C87.4375 118.621 67.0493 123.965 48.8275 115.64C42.7019 112.841 35.8504 107.226 33.1658 102.517H33.1662ZM2.21023 70.2827C19.2826 79.4099 46.8957 72.3758 66.3732 69.5717C77.4911 67.9713 88.3512 66.5815 99.8688 66.4908C108.207 66.4247 127.371 66.8704 131.055 72.4426C131.108 72.6468 129.838 81.8128 130.021 84.7444C130.322 89.5438 131.316 92.8099 132.327 97.1009C129.33 96.1295 127.654 95.0864 124.047 94.2763C91.2855 86.9154 36.6536 104.035 14.5333 100.009C11.6798 99.4902 8.58607 98.5601 6.35931 97.2129C-0.905938 92.8175 7.87924 93.3653 2.20985 70.2823L2.21023 70.2827ZM19.3 69.0478L18.6611 71.7848C15.7773 71.9711 10.1683 71.1759 8.05045 70.1042L19.2996 69.0474L19.3 69.0478ZM26.7866 71.9647L27.9675 67.5666C31.0818 68.4306 35.0027 71.6253 37.3578 68.1424C40.5059 70.5491 41.6986 68.7028 44.1258 67.4242C50.2643 72.0626 50.3873 67.0165 53.7867 68.9643C49.8745 70.3142 31.7355 71.9844 26.7866 71.9643V71.9647ZM2.49987 67.2128C4.675 65.3964 13.1178 65.5532 15.5469 66.0376L17.0892 66.7755C14.3564 67.7674 9.3411 67.7264 6.16419 68.0601C3.3555 68.3547 3.52822 68.3778 2.49987 67.2132V67.2128ZM43.0071 61.9655C42.8833 64.0712 42.8093 65.0502 41.5611 66.2091L41.0851 66.6115C40.4034 67.1676 40.9652 66.7558 40.3138 67.1851C39.6195 66.8051 38.1026 66.8097 37.7845 64.4736C37.551 62.7585 38.5539 62.1409 39.438 61.0309C42.7182 61.0575 40.5647 61.5753 43.0071 61.9652V61.9655ZM57.3106 64.5852L57.2623 62.2601C58.5033 61.5468 58.3176 61.4269 60.1986 61.5168C61.0599 62.4871 61.148 62.5319 61.3552 64.1479C59.9621 65.2802 59.2435 66.1655 57.3109 64.5856L57.3106 64.5852ZM28.9522 65.9381C29.0437 64.6133 29.0088 63.9862 29.913 62.899C30.8464 61.7757 31.6011 62.155 34.242 62.7304C34.373 62.7593 34.4895 62.7771 34.6163 62.8071C34.7419 62.8367 34.8729 62.8705 34.986 62.8994C35.0988 62.9278 35.2601 62.9814 35.3512 63.0064C37.0143 63.454 35.7263 66.6016 35.5201 67.2428C34.0602 67.294 33.3177 67.0575 32.0623 66.6696C30.0523 66.0486 30.4843 66.6244 29.8959 65.0384C29.2961 64.8353 30.1282 64.13 29.1136 65.62C29.0771 65.6731 29.0365 65.8538 28.9526 65.9381H28.9522ZM61.7383 67.2124C63.8914 65.9157 64.2163 66.9953 65.7123 64.701C69.278 66.7364 67.6119 65.5327 69.2157 65.1348C70.9793 66.4384 74.1805 67.0162 75.7844 63.0015C77.43 63.4855 78.9093 64.5988 81.357 64.1042C83.1012 63.7519 85.686 61.1668 90.0396 62.1762C93.4754 62.973 93.6933 64.2511 97.2423 59.94C99.4314 60.6536 100.936 60.1176 102.497 59.3926L105.024 63.9865C97.516 64.6182 90.2249 64.2599 82.4157 65.084C77.8418 65.5665 63.3736 68.0328 61.7383 67.212V67.2124ZM24.329 72.2338L20.8549 72.2057C21.7109 68.1432 23.3625 62.1614 25.8622 59.4529C29.0555 62.3095 25.081 65.046 24.329 72.2338ZM45.074 61.9576C45.9672 60.5223 45.6973 60.5534 47.3201 59.6811C52.6198 62.2688 48.8875 64.8422 51.3272 66.6187C50.9598 66.6753 44.5767 69.0341 44.1535 64.1467L44.71 63.9182C44.7536 63.9053 44.9169 63.8484 44.9685 63.8351C45.1788 63.7808 45.0941 63.9755 45.8158 63.7087L45.2388 62.6929C45.2019 62.5873 45.1366 62.0889 45.0744 61.9572L45.074 61.9576ZM60.4157 60.1973C64.3082 59.1474 64.8089 60.6077 64.1108 63.8241C61.9003 63.7599 62.833 63.6305 61.8563 62.7513C60.3326 61.3809 60.4355 62.5592 60.4157 60.197V60.1973ZM68.34 62.6705C65.7382 63.0664 64.6882 60.1662 65.8888 59.4985C67.9626 58.3449 69.2996 60.0497 68.34 62.6705ZM45.1287 58.0613C45.5068 60.2797 45.2274 61.5575 43.0067 61.9652C42.6073 60.6722 42.8734 61.7636 42.5189 60.6741C42.2441 59.8318 42.3617 60.5314 42.2232 59.3372C43.1365 58.2541 43.8665 57.7671 45.1287 58.0613ZM27.829 57.3086C30.0402 57.7269 29.957 57.5542 29.9107 59.8732C28.0662 59.4749 27.9914 59.341 27.829 57.3086ZM104.687 54.263C107.523 54.5651 110.119 61.7609 110.782 64.2842L107.749 64.2272C106.69 62.6446 106.202 60.8772 105.25 59.1948C103.863 56.7445 103.413 56.8253 104.687 54.2634V54.263ZM40.7511 59.0365C36.3105 56.2286 41.3493 53.38 44.2544 54.947C44.8193 56.5011 44.314 56.2878 43.5362 57.2414C42.4422 58.5833 42.9847 58.7302 40.7511 59.0365ZM92.6046 56.4875C96.1346 55.8793 96.6903 56.1333 95.9118 59.8405C91.5698 62.0471 89.9136 59.44 91.1033 57.1252C91.9536 55.4713 92.0368 57.8362 91.4438 55.0917C89.5519 55.2044 90.6668 55.7719 88.705 55.1869C89.0333 50.7676 92.9964 52.8034 92.6046 56.4871V56.4875ZM81.8888 55.3623C82.7277 54.9876 82.0129 55.562 82.9232 54.6452C83.5044 54.0595 83.403 54.0337 83.6228 53.6651C84.3247 53.4077 87.6527 50.7004 87.7256 53.0452C87.7301 53.2009 87.7882 53.2904 87.792 53.3588L87.7404 54.7052C87.6675 58.4872 90.1706 55.5104 88.5805 59.8583L83.4695 59.6055C81.792 62.6234 80.2447 62.9218 77.6258 61.0116L77.1187 60.6438C78.9199 59.631 79.9615 61.6121 80.0853 61.6896C80.2303 58.9181 79.079 60.0322 79.4252 58.4451C79.7501 56.9563 80.2804 57.6107 80.523 57.5553L81.1402 57.5344C83.7063 57.438 80.1426 58.3229 81.8945 57.5777L81.8888 55.3619V55.3623ZM95.49 49.0377C96.4831 49.789 96.3365 49.3718 96.9477 50.9069C97.5163 52.3357 97.5126 52.5616 97.3163 54.1206C91.9369 57.0121 91.213 50.2437 95.49 49.0377ZM32.6955 49.8573C35.4514 47.7953 34.2355 51.1225 38.0483 53.2984C38.1314 53.3459 38.251 53.4024 38.3326 53.4484C39.2205 53.9521 38.6587 53.4392 39.3678 54.0751L37.8927 56.0422C37.8456 56.0896 37.7302 56.1845 37.6577 56.2643C38.0722 57.1385 38.1371 57.6544 38.5129 58.4906C38.6147 58.7176 38.9555 59.3687 38.9578 59.3728C39.2881 60.0873 39.2816 59.5182 39.4874 60.6836C38.0468 60.8878 38.6883 60.9072 37.3494 61.2287C35.9662 61.5609 32.5243 62.2168 31.2226 61.9553L30.8893 59.7672C30.8791 59.0096 31.1179 58.4838 30.9193 57.7022C30.2379 55.0241 30.9068 57.3864 27.9322 56.0327L28.1122 52.8888C27.4532 52.7093 27.7546 51.6976 27.8032 50.738C31.2374 48.5367 30.192 50.3743 32.6963 49.8569L32.6955 49.8573ZM83.6228 53.6655C82.6723 53.3098 81.9829 52.9139 81.8208 51.4182C81.5904 49.2928 82.5083 49.1698 84.3183 49.051L85.0691 51.006L83.6228 53.6651V53.6655ZM43.0959 53.7399L41.4211 53.8469C40.6907 53.0073 40.6623 52.4181 40.3392 51.4406L39.8419 51.9371C39.2604 52.2484 38.7824 52.6216 37.663 51.9326C37.2287 51.665 36.8081 51.2193 36.6684 50.7266C36.1252 48.8081 36.8313 49.4917 36.9679 49.3091C37.2959 46.8467 40.0158 48.2797 42.282 46.8322C43.2906 46.1884 42.4092 45.5765 44.7441 46.1607C49.4581 47.339 47.393 50.5971 45.1731 52.8478C44.0654 53.9715 45.1086 53.8466 43.0959 53.7403V53.7399ZM69.3341 51.0177C70.1712 53.303 68.362 51.4699 68.0826 51.526C66.7373 51.7978 68.2599 50.6207 66.6314 51.8832L62.8122 52.707L63.0828 53.2145C62.8152 54.3723 62.9708 53.3789 63.5228 53.7012C68.8445 51.4285 69.3618 52.7005 71.4311 51.042C72.341 50.3128 72.2776 49.9662 73.6449 49.7624C78.9465 48.9705 82.0376 49.6948 81.8892 55.3627C77.9739 59.344 81.0051 56.0456 77.8601 58.3464C77.0712 58.9234 78.2313 58.6793 76.2224 59.4689C75.4226 59.0171 75.9093 59.3539 75.456 58.8372L74.9174 58.0704L74.0879 58.4371C75.9757 61.8703 74.2641 65.2423 69.9931 63.4232C69.1045 60.5473 68.8984 58.745 72.1136 58.1562C68.8953 58.4804 68.4857 59.6834 69.0954 53.8447C67.7808 52.6189 68.7936 52.8626 67.7197 53.0672C67.1905 54.8199 67.9159 54.4285 67.7542 56.672C67.5902 58.9458 64.9994 58.874 63.2779 58.507L62.5783 59.4617C58.7572 60.0466 59.6683 59.94 57.7065 57.9615C58.7553 59.0426 58.5363 58.4982 58.9068 60.3731C57.9764 61.6007 57.8439 61.0101 56.967 62.3865C55.8263 64.1771 57.0224 63.6791 55.2489 64.6759L57.3728 65.4617C56.3118 66.9065 56.6303 66.386 55.2364 67.0879L52.5621 65.8994C50.7984 65.3315 51.2821 65.8963 51.5865 63.8696L50.4891 62.0669C51.0296 60.4919 51.0839 61.4641 51.5641 59.9369L50.1645 60.2846C49.9329 58.1479 50.1413 59.218 50.7381 57.5147C49.0663 58.171 50.1823 58.723 48.1818 58.8144C46.34 58.8983 46.8904 58.2838 45.1294 58.0624C45.3693 55.7598 45.6404 57.225 45.2171 54.5143C47.8952 51.7644 46.3096 52.5635 48.1902 51.0029C49.2447 50.128 48.435 51.6874 49.0986 50.0752L48.8264 46.5247C50.059 46.1512 53.2852 45.8141 54.0042 46.9249L56.9814 46.8402C57.09 46.7426 57.76 46.1611 57.8876 46.1068C59.0609 45.6072 58.6122 45.7576 59.9982 45.7576C60.6765 45.2292 60.4825 45.0823 61.4296 45.1054C62.6914 44.7425 62.0708 45.1612 62.8676 44.618C66.1181 40.4351 68.748 43.0183 70.5223 43.368C74.4102 44.134 71.2777 43.8823 73.7527 45.1039L72.1846 48.7052C71.4352 49.8812 70.799 50.6207 69.3357 51.0189L69.3341 51.0177ZM75.4951 44.9896C76.4365 45.1206 76.9414 45.4793 77.2068 45.5161C78.3338 45.6725 80.3392 44.656 82.0687 46.0298C82.897 46.688 82.9881 46.8945 83.176 47.9441C80.6968 49.576 77.3723 48.8532 80.3757 46.2488C80.2816 46.319 80.1403 46.3129 80.1005 46.4674L78.6139 48.1123C77.8153 48.9136 77.3969 49.2849 75.7548 49.0768C72.8538 48.7098 74.6437 46.5897 75.4947 44.9896H75.4951ZM102.088 47.7915L106.2 48.5617C106.391 51.5021 105.015 52.5384 102.422 52.7351C101.678 54.4775 102.003 55.5958 101.681 56.4765C101.468 57.0561 101.807 57.4885 98.9938 57.9892C98.4331 57.4023 97.2206 56.2191 97.3387 54.9713C97.4712 53.5592 98.64 53.4647 99.9917 52.7696C100.057 52.7358 100.187 52.6656 100.276 52.6015L97.9252 52.1744L97.4085 48.6145L97.4822 48.4273C94.1637 49.1455 95.5883 46.4507 93.2815 50.1283L91.1109 52.4986C90.0248 51.9979 90.2219 52.2006 89.7546 51.0151C88.6321 51.6551 89.5868 51.6073 87.9496 51.8533C86.7223 50.8735 83.2986 47.3967 84.628 45.8232C86.0595 45.0637 85.1473 45.217 86.9743 46.0893C86.7811 42.4751 88.0232 43.0092 90.4318 43.2932C90.5445 43.3065 90.6611 43.3376 90.7696 43.3444C90.8729 43.3505 90.9963 43.3619 91.0957 43.3592C91.1929 43.3566 91.3227 43.3456 91.4157 43.3334C92.1358 43.2404 92.5439 43.0499 92.8647 42.6589C92.8764 42.6323 93.0416 41.695 93.3024 41.3963C96.1107 41.8328 94.1181 40.9176 95.5147 42.3567C95.2919 39.5981 95.0797 40.9848 96.5111 40.3524C98.6813 41.2464 96.6429 40.3858 97.678 41.3519C98.7341 42.5207 97.9871 41.4855 99.7928 41.6476C101.61 41.8104 100.426 42.0173 102.564 41.9179C104.862 41.8112 108.487 41.7653 107.303 44.6339C106.41 46.3558 106.894 46.3877 105.124 47.6252C104.709 46.8201 105.383 46.9435 105.056 46.223L104.249 45.9937C104.101 46.1877 104.022 46.9002 103.349 47.3299C102.017 48.1798 103.94 46.4378 102.088 47.7919V47.7915ZM41.1926 44.4377L41.869 45.6957C38.582 47.7626 39.9577 45.3601 36.837 47.5816C34.8699 48.9823 34.2029 48.039 33.4342 46.0757C32.2927 46.8827 33.3366 45.9197 32.5501 46.789C32.2331 47.1397 32.0673 47.3561 31.9469 47.7699C31.4534 49.4674 33.2827 47.5634 31.7674 49.0613C31.6842 49.0563 31.5483 48.9447 31.521 49.0142C30.9907 50.3804 31.1243 48.8908 31.0488 48.8308C30.8612 48.6786 30.4308 48.1441 30.3211 47.8105C29.9677 46.7332 30.0975 45.8771 30.6039 45.2022C30.6509 43.7692 30.7417 44.2202 30.8165 43.7779C31.1148 42.0082 31.3449 42.2944 30.6677 40.1258C31.614 39.9811 35.2206 40.683 36.4877 41.2422C39.7318 42.6744 39.7698 41.3804 41.1926 44.4377ZM99.6357 37.8117C101.556 38.7102 101.555 38.9084 102.003 41.2782L98.0113 40.1702L95.6263 39.7583L96.1687 37.2039C98.216 36.9971 98.2592 36.6736 99.6357 37.8117ZM82.9012 17.5803C96.9731 17.7109 92.7341 33.969 78.8497 33.1695L73.7926 32.9224C75.9829 35.1089 81.2245 35.2664 83.9876 34.724C87.7062 33.994 89.0113 32.2998 91.0752 30.3923L91.5497 29.9983C94.5668 32.1791 95.4073 38.7759 90.1702 39.8843C87.4868 40.4522 88.0251 40.3752 86.0853 41.5937C78.6477 46.2666 75.7119 41.9399 69.3934 40.3019C62.7822 38.5884 60.9077 44.3428 52.5735 44.2737C44.2579 44.205 44.2431 43.0449 40.4523 40.3437C38.0661 38.6438 38.2487 40.0369 35.738 39.4151C35.7532 35.6415 38.7733 31.5114 42.9585 32.602C48.607 34.0737 49.8077 34.8679 56.3972 33.8319C63.5106 32.7136 73.8674 27.2196 76.6305 22.5322C73.7205 23.5253 69.1178 26.9915 62.0484 29.3571C58.4729 30.5533 46.8399 33.2819 43.8775 30.3878C42.6252 29.1647 41.0711 24.6652 42.3621 22.8435C43.8517 20.7416 48.8469 22.1636 51.7008 22.1921C58.1278 22.2563 64.7489 19.3223 65.3574 13.5967C64.0914 14.4945 64.23 15.188 62.5415 16.2999C59.3927 18.3725 54.0353 20.0189 50.1026 19.3185C48.8256 11.3028 58.0994 15.7362 60.3265 10.1511C62.6709 4.27214 65.1714 1.57733 72.9279 2.44434C72.1273 3.47573 69.6731 3.99844 70.2843 7.03945C71.488 13.0281 79.1944 7.90647 82.9008 17.5807L82.9012 17.5803ZM47.6606 19.448C39.3583 19.8989 38.8819 21.6573 40.7663 29.5523C38.6689 31.0259 34.6618 32.2122 33.654 37.861C30.8358 37.8064 28.9553 37.8732 28.4519 40.5418C28.1448 42.1699 28.5411 42.8073 28.3559 44.298C28.1232 46.1672 27.9098 46.0233 28.0772 48.4326C24.036 50.1982 25.0954 52.4872 24.4175 56.5915C24.2022 57.8954 21.3814 62.6541 20.662 65.0305C15.255 64.2079 6.499 62.0293 1.58692 65.2571C-2.19318 67.742 1.95818 74.8728 2.02347 83.8531C2.08952 93.0483 -5.99985 101.266 24.5564 103.121C27.4763 109.181 35.3261 116.513 40.953 120.002C48.0865 124.426 57.5049 127.333 67.4783 127.114C80.7595 126.824 94.1295 120.516 102.55 111.934C104.31 110.14 108.666 104.978 109.875 102.153C114.747 102.97 119.402 106.348 129.972 103.902C141.002 101.349 129.709 93.7802 132.563 77.4963C133.261 73.5051 134.777 72.1131 131.331 69.4802C125.266 64.8445 114.982 65.6614 113.382 64.1874L108.811 54.758C107.468 52.6113 107.641 53.8591 108.178 51.5135C108.555 49.8653 108.312 48.9053 108.604 47.5956C109.371 44.1674 112.357 41.6859 104.051 39.4197C102.787 35.4559 100.853 35.1169 96.1801 35.0463C95.7907 31.4381 94.5478 30.3764 93.0666 28.2381C93.8509 24.6789 94.5767 22.1982 92.3716 19.1021C89.8738 15.5954 87.0286 15.9256 84.9708 15.1057C83.0618 14.3453 84.4993 14.5655 82.5876 12.2495C79.533 8.548 71.0697 8.66302 72.661 5.9629C72.9799 5.42158 73.815 5.33693 74.4964 5.1551C75.4222 4.90798 75.9339 4.82219 76.5261 4.48054C77.3597 -1.24465 64.6517 -2.04144 59.9302 5.37831C56.3171 11.056 60.6875 9.54142 53.0578 11.6945C49.2288 12.7749 47.7263 14.8669 47.6606 19.4476V19.448Z" fill="#3B1B0C"/>
<path fill-rule="evenodd" clip-rule="evenodd" d="M2.21094 70.2824C7.88033 93.3654 -0.904854 92.8176 6.36039 97.213C8.58715 98.5599 11.6809 99.4903 14.5344 100.01C36.6547 104.035 91.2866 86.9155 124.048 94.2764C127.655 95.0869 129.331 96.13 132.328 97.1011C131.317 92.81 130.323 89.5439 130.023 84.7446C129.839 81.8129 131.109 72.6466 131.056 72.4427C127.372 66.8701 108.208 66.4245 99.8698 66.4909C88.3522 66.5816 77.4922 67.9714 66.3743 69.5718C46.8964 72.3759 19.2836 79.41 2.21132 70.2828L2.21094 70.2824Z" fill="#FDFDFB"/>
<path fill-rule="evenodd" clip-rule="evenodd" d="M82.902 17.5814C79.196 7.90723 71.4893 13.0289 70.2855 7.04022C69.6744 3.99921 72.1285 3.47649 72.9291 2.44511C65.1726 1.57809 62.6722 4.2729 60.3277 10.1518C58.1006 15.7373 48.8265 11.3039 50.1039 19.3193C54.0366 20.0196 59.3939 18.3733 62.5427 16.3007C64.2312 15.1888 64.0923 14.4953 65.3586 13.5975C64.7501 19.3231 58.1291 22.257 51.702 22.1929C48.8481 22.1644 43.8525 20.7428 42.3634 22.8443C41.0723 24.666 42.6264 29.1654 43.8787 30.3885C46.8412 33.2826 58.4741 30.554 62.0496 29.3579C69.1194 26.9918 73.7217 23.5257 76.6317 22.533C73.8686 27.2204 63.5119 32.7144 56.3985 33.8327C49.8089 34.8686 48.6082 34.0745 42.9597 32.6028C38.7746 31.5122 35.7544 35.6423 35.7393 39.4159C38.25 40.0377 38.0674 38.6445 40.4536 40.3444C44.2443 43.0457 44.2591 44.2057 52.5747 44.2745C60.9089 44.3435 62.7834 38.5887 69.3946 40.3027C75.7131 41.9407 78.6486 46.2674 86.0866 41.5944C88.0263 40.3759 87.488 40.453 90.1715 39.8851C95.4085 38.7766 94.568 32.1799 91.551 29.9991L91.0764 30.3931C89.0125 32.3006 87.7075 33.9952 83.9889 34.7248C81.2261 35.2672 75.9841 35.1097 73.7938 32.9232L78.8509 33.1703C92.7353 33.9701 96.9744 17.712 82.9024 17.5811L82.902 17.5814Z" fill="#FDFDFB"/>
<path fill-rule="evenodd" clip-rule="evenodd" d="M33.166 102.516C35.8506 107.225 42.7017 112.841 48.8277 115.64C67.0491 123.965 87.4377 118.621 100.118 103.368C101.587 101.601 104.694 97.569 105.345 95.0101C80.9662 93.4302 55.0229 101.359 33.1664 102.516H33.166Z" fill="#EABC8C"/>
<path fill-rule="evenodd" clip-rule="evenodd" d="M27.3197 102.927C27.4795 104.422 29.6547 106.764 30.5942 108.019C34.0641 112.655 39.4743 116.61 44.5374 119.476C51.9629 123.678 63.0317 125.875 72.6934 124.493C81.2433 123.27 90.4077 119.517 96.5732 114.276C100.937 110.567 110.798 99.9295 110.978 95.0576L108.034 95.0667C103.501 102.103 102.049 106.357 93.8549 112.429C78.2357 124.002 56.1552 125.212 40.4157 113.088C30.0453 105.099 33.133 102.625 27.3193 102.926L27.3197 102.927Z" fill="#E6A659"/>
<path fill-rule="evenodd" clip-rule="evenodd" d="M63.0837 53.215C59.5575 53.0605 60.8831 56.0058 63.0404 54.5474C62.5317 56.7624 62.3131 56.7495 63.278 58.5067C64.9995 58.8738 67.5903 58.9455 67.7543 56.6717C67.916 54.4282 67.1906 54.8192 67.7198 53.0669C68.794 52.8623 67.7809 52.6186 69.0955 53.8444C69.1964 53.9389 69.3274 53.9818 69.3764 54.1488C69.4876 54.5318 69.7442 54.5087 69.9006 54.5561C71.1939 54.9536 69.2515 55.4915 70.5273 54.4161C70.478 52.7302 70.456 54.0919 70.968 53.4329C73.3261 55.0781 71.4217 55.7101 74.3704 55.832L74.5378 57.1697L74.9182 58.0705L75.4569 58.8373C75.9101 59.3539 75.4235 59.0172 76.2233 59.469C78.2321 58.6794 77.0721 58.9235 77.8609 58.3465C81.0059 56.0457 77.9748 59.3445 81.89 55.3628C82.0384 49.6949 78.9473 48.971 73.6458 49.7625C72.2788 49.9667 72.3418 50.3133 71.4319 51.0421C69.3627 52.7006 68.8453 51.429 63.5236 53.7013C62.9717 53.379 62.816 54.372 63.0837 53.2146V53.215Z" fill="#E6A659"/>
<path fill-rule="evenodd" clip-rule="evenodd" d="M61.7383 67.213C63.3736 68.0337 77.8419 65.5674 82.4157 65.085C90.2249 64.2605 97.516 64.6188 105.024 63.9875L102.497 59.3936C100.937 60.1186 99.4315 60.6542 97.2423 59.9409C93.6934 64.2521 93.4755 62.974 90.0397 62.1772C85.686 61.1678 83.1013 63.7529 81.357 64.1052C78.9093 64.5994 77.43 63.4865 75.7844 63.0025C74.1802 67.0175 70.979 66.4394 69.2157 65.1358C67.6119 65.5337 69.278 66.7374 65.7124 64.7019C64.2163 66.9963 63.8914 65.9167 61.7383 67.2134V67.213Z" fill="#AD6D4A"/>
<path fill-rule="evenodd" clip-rule="evenodd" d="M32.6967 49.8572L33.1002 50.597C33.4065 51.5582 32.6352 52.8838 32.4856 52.9791C29.7149 53.6483 31.1395 52.8811 30.8628 52.8921L29.3687 53.635C30.4069 50.0569 29.4734 52.2202 28.9283 51.4496C28.2078 52.2274 27.8172 50.2721 28.1125 52.8887L27.9326 56.0326C30.9072 57.3859 30.238 55.024 30.9197 57.7021C31.1186 58.4837 30.8795 59.0095 30.8897 59.7671L31.223 61.9552C32.5247 62.2167 35.9666 61.5612 37.3498 61.2286C38.6891 60.9075 38.0472 60.8877 39.4878 60.6835C39.282 59.5181 39.2885 60.0872 38.9582 59.3727C38.9559 59.3686 38.6151 58.7179 38.5133 58.4905C38.1375 57.6543 38.0726 57.1384 37.6581 56.2642C37.7306 56.1844 37.846 56.0895 37.8931 56.0421L39.3682 54.075C38.6591 53.4391 39.2209 53.952 38.333 53.4483C38.2514 53.4023 38.1318 53.3458 38.0487 53.2983C34.2359 51.1224 35.4518 47.7948 32.6959 49.8572H32.6967Z" fill="#D38837"/>
<path fill-rule="evenodd" clip-rule="evenodd" d="M57.6885 49.3311C57.8494 50.9823 56.9198 51.871 55.2548 50.9968C55.218 50.9778 55.1197 50.9079 55.0829 50.8871C52.6978 49.5209 53.3295 50.3287 52.8732 50.4448C52.2575 50.6012 52.7286 50.7758 51.9937 50.6118C51.865 50.583 51.3597 50.1928 51.2436 50.1324C50.3952 49.3455 50.5751 49.4298 49.7498 48.9029C49.6788 49.1462 49.1595 49.9669 49.0981 50.0751C48.4349 51.6873 49.2442 50.1279 48.1897 51.0028C46.3095 52.5634 47.8947 51.7639 45.2166 54.5142C45.6399 57.2249 45.3688 55.7597 45.1289 58.0623C46.8899 58.2837 46.3395 58.8982 48.1813 58.8143C50.1818 58.7229 49.0658 58.1709 50.7376 57.5146C50.1408 59.2179 49.932 58.1478 50.164 60.2845L51.5636 59.9368C54.0944 54.1574 54.4254 56.6198 56.0589 54.5263C58.0916 51.9219 57.1529 53.6251 57.5378 54.0735C57.9117 53.9284 58.4166 53.8757 58.7256 53.6365L58.7613 52.2172C58.6413 50.3909 59.3424 50.1928 59.6165 48.7112L59.582 47.1719C59.4753 47.2463 59.3181 47.2281 59.2688 47.4042L57.6885 49.3307V49.3311Z" fill="#D38837"/>
<path fill-rule="evenodd" clip-rule="evenodd" d="M97.4823 48.4273L97.0833 45.6042C96.9079 44.985 96.827 43.801 96.7375 43.1291C94.2351 43.1891 95.4814 44.1321 94.0878 43.2552C93.75 41.7034 94.3008 43.1227 92.8655 42.6592C92.5447 43.0502 92.1363 43.2408 91.4166 43.3338C91.3235 43.3459 91.1937 43.3569 91.0965 43.3596C90.9971 43.3622 90.8737 43.3508 90.7705 43.3448C90.6619 43.3379 90.5454 43.3064 90.4326 43.2935C88.024 43.0096 86.782 42.4751 86.9752 46.0897C85.1481 45.2173 86.0603 45.064 84.6288 45.8236C83.2991 47.397 86.7231 50.8738 87.9504 51.8536C89.5876 51.6076 88.6329 51.6551 89.7554 51.0154C90.2231 52.2009 90.0257 51.9982 91.1117 52.4989L93.2823 50.1287C95.5888 46.4507 94.1645 49.1455 97.483 48.4277L97.4823 48.4273Z" fill="#D38837"/>
<path fill-rule="evenodd" clip-rule="evenodd" d="M61.428 45.1048L62.3038 46.4312C61.5567 47.4671 61.9325 47.2796 60.5504 47.3422C59.6154 46.2539 60.383 47.3259 59.9965 45.7574C58.6106 45.7574 59.0597 45.607 57.886 46.1066C57.7584 46.1605 57.0884 46.7424 56.9798 46.84C57.3822 47.7696 57.0751 47.1486 57.2057 47.7985C57.2194 47.8672 57.2338 47.9993 57.2482 48.0669C57.2615 48.1306 57.2672 48.2612 57.2812 48.3208C57.4228 48.9255 57.4445 48.8678 57.6874 49.331L59.2677 47.4045C59.3171 47.2283 59.4746 47.2465 59.5809 47.1721L59.6154 48.7114C59.3414 50.193 58.6402 50.3912 58.7602 52.2175L59.8595 52.4589C60.6958 56.1152 61.1836 55.6039 61.0071 57.579C58.9226 58.5018 59.0263 57.2647 58.8171 56.7644C56.7441 57.9685 56.4742 56.8809 56.3892 56.8426L56.6731 55.1279C57.364 53.8987 56.9229 54.5919 57.5367 54.0733C57.1518 53.625 58.0906 51.9218 56.0578 54.5262C54.4243 56.6197 54.0933 54.1569 51.5625 59.9367C52.5305 59.4239 51.9478 59.7849 52.7408 59.0841C52.9044 58.9395 53.8192 58.0288 53.8781 57.9905C55.1767 57.1356 56.4829 57.601 57.7053 57.9616C59.6667 59.9401 58.756 60.0468 62.5771 59.4618L63.2767 58.5071C62.3118 56.7496 62.5304 56.7628 63.0391 54.5479C60.8822 56.0063 59.5562 53.0609 63.0824 53.2154L62.8117 52.7079C61.1893 52.1283 60.0011 51.5289 60.5515 49.7721C61.3198 47.3194 61.343 48.221 63.5223 47.0104C65.4389 48.2252 66.4726 49.1753 66.6309 51.8846C68.2594 50.6224 66.7372 51.7991 68.0821 51.5273C68.3615 51.4712 70.1707 53.3043 69.3337 51.0191C68.9708 50.5237 68.2435 49.6574 67.9337 49.4873C66.2304 48.5531 69.148 49.624 67.2804 49.4327C65.4769 49.2478 68.2472 50.5749 66.4164 49.2543C65.2932 48.2335 66.0353 48.7502 65.6599 47.9553C64.496 45.4966 64.1938 46.7728 62.866 44.6182C62.0688 45.1618 62.6898 44.7431 61.428 45.1056V45.1048Z" fill="#6C320F"/>
<path fill-rule="evenodd" clip-rule="evenodd" d="M62.8666 44.6173C64.1944 46.7715 64.4966 45.4957 65.6605 47.9544C66.0363 48.7493 65.2938 48.2326 66.417 49.2534C68.2479 50.574 65.4775 49.2469 67.281 49.4318C69.1487 49.6235 66.231 48.5523 67.9343 49.4865C68.2437 49.6565 68.9714 50.5228 69.3343 51.0182C70.7977 50.62 71.4339 49.8805 72.1832 48.7045L73.7514 45.1032C71.2763 43.8816 74.4088 44.1333 70.5209 43.3672C68.7467 43.0176 66.1168 40.4344 62.8662 44.6173H62.8666Z" fill="#D38837"/>
<path fill-rule="evenodd" clip-rule="evenodd" d="M83.6233 53.666C83.4039 54.0346 83.5048 54.06 82.9237 54.6462C82.013 55.5625 82.7282 54.9886 81.8892 55.3632L81.8949 57.579C80.1431 58.3238 83.7068 57.4393 81.1407 57.5357L80.5234 57.5566C80.2809 57.6116 79.7506 56.9576 79.4256 58.4464C79.0794 60.0335 80.2311 58.9194 80.0857 61.6908C79.962 61.6134 78.9204 59.6323 77.1191 60.645L77.6263 61.0129C80.2452 62.923 81.7925 62.6247 83.4699 59.6068L88.5809 59.8596C90.1711 55.5116 87.668 58.4889 87.7408 54.7065L87.7925 53.3601C87.7887 53.2917 87.7306 53.2021 87.726 53.0465C87.6532 50.7017 84.3252 53.409 83.6233 53.6664V53.666Z" fill="#E6A659"/>
<path fill-rule="evenodd" clip-rule="evenodd" d="M26.7871 71.9649C31.736 71.985 49.875 70.3147 53.7872 68.9649C50.3879 67.0167 50.2653 72.0628 44.1263 67.4248C41.6991 68.7029 40.5064 70.5497 37.3583 68.143C35.0033 71.6259 31.0823 68.4311 27.9681 67.5672L26.7871 71.9653V71.9649Z" fill="#AD6D4A"/>
<path fill-rule="evenodd" clip-rule="evenodd" d="M113.715 100.772C116.481 103.557 130.624 102.806 132.508 100.495C130.809 97.3226 117.373 100.237 113.715 100.772Z" fill="#C9B6A7"/>
<path fill-rule="evenodd" clip-rule="evenodd" d="M74.9174 58.0709L74.5371 57.1701C73.6348 57.8685 75.8209 57.9118 73.3151 57.7311C72.6307 55.9447 73.5205 57.2627 72.0264 56.0855C70.8439 55.154 71.2672 55.7071 70.5265 54.4164C69.2511 55.4922 71.1931 54.9543 69.8998 54.5565C69.7434 54.509 69.4868 54.5318 69.3756 54.1492C69.327 53.9821 69.1957 53.9389 69.0947 53.8447C68.485 59.6838 68.8946 58.4808 72.1129 58.1563C68.8977 58.745 69.1042 60.5474 69.9924 63.4233C74.2634 65.2423 75.975 61.8707 74.0872 58.4372L74.9167 58.0705L74.9174 58.0709Z" fill="#D38837"/>
<path fill-rule="evenodd" clip-rule="evenodd" d="M24.3286 72.234C25.0806 65.0462 29.0555 62.3096 25.8619 59.4531C23.3622 62.1616 21.7105 68.1434 20.8545 72.2059L24.3286 72.234Z" fill="#E6A659"/>
<path fill-rule="evenodd" clip-rule="evenodd" d="M36.9688 49.31C37.5875 51.4809 38.3167 50.6367 38.5285 49.6922C39.0562 47.3368 38.1334 49.2523 38.1224 49.2568C39.3136 49.3764 38.8144 49.6254 39.1112 50.1326C39.5732 49.5157 39.4867 50.1098 39.7178 49.056C39.7251 49.0241 39.6643 48.3199 39.6484 48.2209L40.5408 48.7595C42.3755 48.4213 39.4977 48.5109 42.4282 48.0037C42.2528 49.8107 42.5789 48.0136 41.4428 49.8103L43.7234 49.3639C44.0172 51.8905 43.4793 49.5472 43.0967 53.7411C45.1094 53.8474 44.0662 53.9723 45.1739 52.8486C47.3934 50.598 49.4589 47.3398 44.7449 46.1615C42.41 45.5777 43.2918 46.1896 42.2828 46.833C40.0166 48.2805 37.2967 46.8478 36.9688 49.31Z" fill="#E6A659"/>
<path fill-rule="evenodd" clip-rule="evenodd" d="M44.1537 64.1483C44.577 69.0357 50.9604 66.6768 51.3275 66.6203C48.8877 64.8433 52.62 62.2704 47.3204 59.6826C45.6976 60.5549 45.9674 60.5234 45.0742 61.9591C45.1365 62.0905 45.2022 62.5893 45.2386 62.6948L45.8156 63.7106C45.0936 63.9775 45.1783 63.7823 44.9683 63.837C44.9167 63.8503 44.7535 63.9072 44.7098 63.9201L44.1533 64.1487L44.1537 64.1483Z" fill="#D38837"/>
<path fill-rule="evenodd" clip-rule="evenodd" d="M97.4086 48.615L97.9252 52.1749L100.276 52.602L102.422 52.7356C105.015 52.5389 106.391 51.5026 106.2 48.5622L102.088 47.792C101.803 48.0733 100.31 49.4634 100.31 48.0543L97.4082 48.615H97.4086Z" fill="#E6A659"/>
<path fill-rule="evenodd" clip-rule="evenodd" d="M30.6043 45.2028C30.0979 45.8777 29.9681 46.7338 30.3215 47.8111C30.4312 48.1447 30.8617 48.6792 31.0492 48.8314C31.1243 48.8914 30.9911 50.381 31.5214 49.0148C31.5487 48.9457 31.6846 49.0573 31.7678 49.0619C33.2832 47.5639 31.4538 49.468 31.9473 47.7705C32.0677 47.3571 32.2335 47.1403 32.5505 46.7896C33.3371 45.9203 32.2931 46.8833 33.4346 46.0763C34.2033 48.0392 34.8699 48.9829 36.8374 47.5822C39.9581 45.3607 38.5824 47.7632 41.8694 45.6963L41.193 44.4383C40.3434 45.0677 42.2168 45.2989 40.0454 44.901L38.4424 43.2497C37.6308 42.8318 37.2227 42.5562 36.5774 43.566C37.6497 44.6463 38.344 43.0095 38.3664 42.9844C38.0992 45.2837 37.671 44.2447 39.2984 44.7275C39.1868 44.8103 39.0463 44.9325 38.9704 44.9864C37.6581 45.9191 38.1766 45.4545 37.266 45.5262C36.3895 45.5957 36.2175 46 35.2821 45.7555C35.6052 43.2683 34.3168 41.7237 31.9952 41.1084C31.6911 42.7369 32.2734 42.4264 31.1194 42.6921L33.0334 43.7964C33.4638 44.0625 33.8958 44.748 34.3574 45.3152C32.5167 45.0703 32.057 45.0506 30.6043 45.2024V45.2028Z" fill="#D38837"/>
<path fill-rule="evenodd" clip-rule="evenodd" d="M105.25 59.1955C106.202 60.8779 106.69 62.6453 107.749 64.2279L110.782 64.2848C110.119 61.7616 107.523 54.5658 104.686 54.2637C103.412 56.826 103.863 56.7448 105.25 59.1951V59.1955Z" fill="#E6A659"/>
<path fill-rule="evenodd" clip-rule="evenodd" d="M30.6045 45.2027C32.0572 45.0509 32.5169 45.0706 34.3576 45.3154C33.896 44.7487 33.4641 44.0627 33.0336 43.7966L31.1196 42.6924C32.2736 42.4267 31.6913 42.7372 31.9954 41.1087C34.317 41.724 35.6054 43.2682 35.2824 45.7558C36.2177 45.9999 36.3897 45.596 37.2662 45.5265C38.1772 45.4548 37.6583 45.9194 38.9706 44.9867C39.0465 44.9328 39.1873 44.8106 39.2986 44.7278C37.6712 44.2453 38.0994 45.2839 38.3666 42.9847C38.3439 43.0101 37.6496 44.6466 36.5776 43.5662C37.2229 42.5565 37.631 42.8317 38.4426 43.25L40.0456 44.9013C42.217 45.2991 40.3436 45.0679 41.1932 44.4386C39.7704 41.3812 39.7325 42.6749 36.4884 41.243C35.2212 40.6835 31.6146 39.982 30.6683 40.1266C31.3455 42.2953 31.1154 42.0091 30.8171 43.7788C30.7427 44.221 30.6519 43.7701 30.6045 45.2031V45.2027Z" fill="#E6A659"/>
<path fill-rule="evenodd" clip-rule="evenodd" d="M51.5633 59.9365C51.0835 61.4637 51.0288 60.4919 50.4883 62.0665L51.5857 63.8692L52.1134 63.1559C52.2534 62.8948 52.4797 62.5505 52.1031 62.3121L52.6429 62.5539L53.404 63.4843C53.4329 63.542 53.4803 63.6555 53.4989 63.7121L53.4511 64.9442C54.2095 64.3475 53.5301 65.0536 54.3432 64.1885L55.8274 61.5946C56.6033 59.0665 57.6176 60.2345 56.5187 59.328C57.4601 60.2075 57.5933 60.0603 58.9068 60.3727C58.5363 58.4978 58.7553 59.0418 57.7065 57.961C56.4841 57.6004 55.1779 57.135 53.8793 57.9899C53.8204 58.0286 52.9056 58.9389 52.742 59.0835C51.9486 59.7843 52.5313 59.4233 51.5637 59.9361L51.5633 59.9365Z" fill="#E6A659"/>
<path fill-rule="evenodd" clip-rule="evenodd" d="M91.1034 57.1262C89.9137 59.4406 91.5699 62.0477 95.9119 59.8415C96.6904 56.1343 96.1347 55.8803 92.6048 56.4884C92.9961 52.8048 89.0334 50.7689 88.7051 55.1883C90.6669 55.7733 89.552 55.2058 91.4439 55.093C92.0369 57.8372 91.9537 55.4726 91.1034 57.1265V57.1262Z" fill="#E6A659"/>
<path fill-rule="evenodd" clip-rule="evenodd" d="M111.588 99.3881C117.031 97.8944 124.324 97.2555 125.088 96.9913C122.979 95.8069 115.818 95.2671 113.179 95.4368L111.588 99.3885V99.3881Z" fill="#C9B6A7"/>
<path fill-rule="evenodd" clip-rule="evenodd" d="M35.3511 63.0069C35.26 62.9819 35.0987 62.9283 34.986 62.8999C34.8728 62.871 34.7419 62.8372 34.6162 62.8076C34.4894 62.7776 34.3733 62.7598 34.2419 62.7309C31.6006 62.1555 30.8464 61.7762 29.9129 62.8995C29.0087 63.9867 29.0436 64.6138 28.9521 65.9386C29.036 65.8543 29.077 65.6736 29.1131 65.6205C30.1278 64.1305 29.2957 64.8359 29.8955 65.0389C30.4839 66.6249 30.0519 66.0491 32.0619 66.6701C33.3176 67.0584 34.0597 67.2949 35.5197 67.2433C35.7258 66.6018 37.0138 63.4545 35.3508 63.0069H35.3511Z" fill="#E6A659"/>
<path fill-rule="evenodd" clip-rule="evenodd" d="M75.4956 44.9902C74.6445 46.5903 72.8547 48.7104 75.7556 49.0774C77.3978 49.2855 77.8161 48.9142 78.6148 48.1129L80.1013 46.468C80.1412 46.3135 80.2824 46.3196 80.3766 46.2494C77.3731 48.8538 80.6973 49.577 83.1769 47.9447C82.989 46.8951 82.8979 46.6886 82.0696 46.0303C80.3401 44.6566 78.3347 45.6731 77.2076 45.5167C76.9423 45.4799 76.4374 45.1216 75.496 44.9902H75.4956Z" fill="#E6A659"/>
<path fill-rule="evenodd" clip-rule="evenodd" d="M62.8126 52.7076L66.6318 51.8839C66.4735 49.1746 65.4398 48.2245 63.5232 47.0098C61.3439 48.2203 61.3207 47.3188 60.5524 49.7714C60.002 51.5282 61.1901 52.1276 62.8126 52.7072V52.7076Z" fill="#E6A659"/>
<path fill-rule="evenodd" clip-rule="evenodd" d="M2.5 67.2132C3.52835 68.3782 3.35563 68.3547 6.16432 68.0601C9.34123 67.7264 14.3569 67.7671 17.0893 66.7755L15.547 66.0376C13.1179 65.5536 4.67513 65.3964 2.5 67.2128V67.2132Z" fill="#C9B6A7"/>
<path fill-rule="evenodd" clip-rule="evenodd" d="M43.0069 61.9655C40.5645 61.5752 42.718 61.0574 39.4379 61.0312C38.5538 62.1412 37.5508 62.7588 37.7843 64.4739C38.1024 66.81 39.6193 66.8054 40.3136 67.1854C40.965 66.7561 40.4032 67.1676 41.085 66.6118L41.561 66.2094C42.8095 65.0505 42.8835 64.0715 43.0069 61.9658V61.9655Z" fill="#E6A659"/>
<path fill-rule="evenodd" clip-rule="evenodd" d="M99.8418 46.5292C101.247 48.253 101.67 47.4212 100.31 48.0544C100.31 49.4635 101.803 48.0734 102.088 47.7921C103.94 46.4385 102.018 48.1805 103.349 47.3301C104.022 46.9004 104.101 46.1879 104.25 45.9939L105.057 46.2232C105.384 46.9437 104.709 46.8203 105.125 47.6255C106.895 46.388 106.41 46.3565 107.303 44.6342C106.797 44.0838 106.722 45.3395 106.874 43.1294L104.826 43.8325C104.731 43.8412 104.311 43.6427 104.24 43.6005L103.423 43.0345C103.356 42.9977 103.246 42.9324 103.174 42.8983C101.882 42.2833 103.459 42.9841 101.624 42.3945C101.993 44.2375 102.507 44.0033 102.062 44.8813C102.001 44.7496 103.648 43.9687 101.592 44.6976C99.8331 45.322 101.913 44.0238 100.421 45.5946L101.186 46.3849C100.013 45.3463 99.8505 46.5212 99.8418 46.5288V46.5292Z" fill="#D38837"/>
<path fill-rule="evenodd" clip-rule="evenodd" d="M99.8424 46.529C99.8512 46.5214 100.013 45.3466 101.186 46.3852L100.422 45.5948C101.914 44.024 99.8337 45.3223 101.593 44.6978C103.648 43.9686 102.001 44.7494 102.063 44.8815C102.508 44.0035 101.994 44.2374 101.624 42.3948C103.46 42.9843 101.883 42.2835 103.175 42.8985C103.247 42.933 103.356 42.9983 103.424 43.0348L104.241 43.6008C104.312 43.6433 104.732 43.8414 104.827 43.8327L106.875 43.1297C106.723 45.3397 106.798 44.084 107.304 44.6344C108.488 41.7658 104.863 41.8117 102.565 41.9184C100.427 42.0178 101.611 41.8109 99.7939 41.6481C97.9885 41.4864 98.7351 42.5212 97.6791 41.3524C95.6102 41.3505 96.6481 41.18 96.0977 41.8124C96.9472 43.0462 98.1282 43.091 99.2043 45.1245L99.8428 46.5286L99.8424 46.529Z" fill="#E6A659"/>
<path fill-rule="evenodd" clip-rule="evenodd" d="M36.9687 49.3095C36.8324 49.4921 36.1263 48.8085 36.6692 50.727C36.8085 51.2197 37.2295 51.6654 37.6637 51.933C38.7832 52.622 39.2611 52.2488 39.8426 51.9375L40.3399 51.441C40.6626 52.4189 40.6914 53.0076 41.4218 53.8473L43.0966 53.7403C43.4793 49.5464 44.0168 51.8897 43.7233 49.3631L41.4427 49.8095C42.5788 48.0128 42.2528 49.8098 42.4281 48.0029C39.4976 48.5101 42.3754 48.4205 40.5407 48.7587L39.6483 48.2201C39.6642 48.3195 39.725 49.0237 39.7178 49.0552C39.4866 50.109 39.5731 49.5149 39.1112 50.1317C38.8143 49.6246 39.3139 49.3756 38.1223 49.256C38.1333 49.2514 39.0561 47.336 38.5285 49.6914C38.3166 50.6359 37.5874 51.4801 36.9687 49.3091V49.3095Z" fill="#D38837"/>
<path fill-rule="evenodd" clip-rule="evenodd" d="M95.4908 49.0381C91.2138 50.2441 91.9377 57.0124 97.317 54.121C97.5137 52.5619 97.5175 52.3361 96.9484 50.9073C96.3373 49.3721 96.4834 49.7893 95.4908 49.0381Z" fill="#E6A659"/>
<path fill-rule="evenodd" clip-rule="evenodd" d="M51.5854 63.8693C51.281 65.896 50.7974 65.3308 52.561 65.8991L55.2353 67.0876C56.6292 66.3857 56.3111 66.9062 57.3717 65.4614L55.2478 64.6756C57.0217 63.6788 55.8252 64.1772 56.9659 62.3862C57.8428 61.0098 57.9749 61.6004 58.9057 60.3728C57.5923 60.0604 57.4594 60.2077 56.5176 59.3281C57.6166 60.2346 56.6023 59.0666 55.8264 61.5947L54.3421 64.1886C53.529 65.0537 54.2089 64.3476 53.45 64.9444L53.4979 63.7122C53.4793 63.6556 53.4318 63.5421 53.403 63.4844L52.6419 62.554L52.1021 62.3122C52.4786 62.5506 52.2524 62.8949 52.1123 63.1561L51.5847 63.8693H51.5854Z" fill="#D38837"/>
<path fill-rule="evenodd" clip-rule="evenodd" d="M92.865 42.66C94.2999 43.1235 93.7495 41.7041 94.0873 43.256C95.4812 44.1332 94.2346 43.1903 96.737 43.1299C96.8266 43.8015 96.9074 44.9858 97.0828 45.605L97.4818 48.4281L97.4081 48.6152L100.309 48.0545C101.669 47.421 101.247 48.2531 99.8414 46.5293L99.2029 45.1251C98.1263 43.0916 96.9458 43.0468 96.0962 41.8131C96.6466 41.1807 95.6088 41.3511 97.6776 41.353C96.6428 40.3865 98.6809 41.2471 96.5107 40.3535C95.0792 40.9859 95.2914 39.5992 95.5143 42.3578C94.1177 40.9187 96.1102 41.834 93.3019 41.3974C93.0411 41.6966 92.876 42.6338 92.8643 42.66H92.865Z" fill="#6C320F"/>
<path fill-rule="evenodd" clip-rule="evenodd" d="M102.423 52.7362L100.277 52.6025C100.188 52.6667 100.058 52.7369 99.9922 52.7707C98.6404 53.4658 97.4716 53.5603 97.3391 54.9724C97.221 56.2205 98.4335 57.4034 98.9942 57.9903C101.808 57.4899 101.468 57.0576 101.681 56.4775C102.004 55.5969 101.679 54.4785 102.423 52.7362Z" fill="#D38837"/>
<path fill-rule="evenodd" clip-rule="evenodd" d="M8.05078 70.1043C10.1686 71.1759 15.7776 71.9712 18.6615 71.7848L19.3004 69.0479L8.05116 70.1047L8.05078 70.1043Z" fill="#AD6D4A"/>
<path fill-rule="evenodd" clip-rule="evenodd" d="M40.7518 59.0365C42.9854 58.7302 42.4429 58.5829 43.5369 57.2414C44.3148 56.2878 44.82 56.5015 44.2552 54.9471C41.35 53.3801 36.3112 56.2286 40.7518 59.0365Z" fill="#D38837"/>
<path fill-rule="evenodd" clip-rule="evenodd" d="M51.2432 50.1322C51.3597 50.1925 51.865 50.5831 51.9933 50.6116C52.7282 50.7756 52.2571 50.601 52.8728 50.4446C53.3291 50.3284 52.6974 49.5206 55.0825 50.8868C55.1193 50.9077 55.2176 50.9775 55.2544 50.9965C56.9194 51.8707 57.849 50.9821 57.6881 49.3308C57.4451 48.8673 57.4235 48.9254 57.2819 48.3207C57.2679 48.2611 57.2622 48.1305 57.2489 48.0667C57.2345 47.9992 57.22 47.8671 57.2064 47.7983C57.0758 47.1485 57.3829 47.7695 56.9805 46.8398L54.0033 46.9245L52.2142 47.0372C54.8426 47.7703 53.3822 46.2116 54.1676 48.7785C53.1325 49.2279 52.8155 49.7036 51.2435 50.1322H51.2432Z" fill="#E6A659"/>
<path fill-rule="evenodd" clip-rule="evenodd" d="M57.5372 54.0737C56.9234 54.5922 57.3645 53.899 56.6736 55.1282L56.3896 56.8429C56.4747 56.8812 56.7446 57.9688 58.8176 56.7647C59.0268 57.2646 58.9231 58.5021 61.0075 57.5793C61.1841 55.6042 60.6966 56.1155 59.86 52.4592L58.7607 52.2178L58.725 53.6371C58.416 53.8763 57.9107 53.929 57.5372 54.074V54.0737Z" fill="#E6A659"/>
<path fill-rule="evenodd" clip-rule="evenodd" d="M49.0978 50.0752C49.1592 49.967 49.6785 49.1467 49.7495 48.903C50.5748 49.4299 50.3949 49.3456 51.2433 50.1325C52.8152 49.704 53.1322 49.2279 54.1674 48.7789C53.382 46.212 54.8423 47.7706 52.2139 47.0376L54.003 46.9249C53.2836 45.8141 50.0574 46.1512 48.8252 46.5248L49.0974 50.0752H49.0978Z" fill="#AD6D4A"/>
<path fill-rule="evenodd" clip-rule="evenodd" d="M28.1121 52.8895C27.8164 50.2725 28.2074 52.2283 28.9279 51.4504C29.473 52.221 30.4064 50.0577 29.3682 53.6358L30.8623 52.8929C31.1394 52.8819 29.7144 53.6491 32.4851 52.9799C32.6347 52.8846 33.4061 51.559 33.0997 50.5979L32.6962 49.858C30.1923 50.3754 31.2378 48.5377 27.8031 50.7391C27.7549 51.6987 27.4531 52.7104 28.1121 52.8899V52.8895Z" fill="#E6A659"/>
<path fill-rule="evenodd" clip-rule="evenodd" d="M57.3103 64.5849C59.2433 66.1648 59.9615 65.2795 61.3546 64.1472C61.1474 62.5316 61.0593 62.4864 60.198 61.5162C58.317 61.4262 58.5026 61.5465 57.2617 62.2594L57.3099 64.5845L57.3103 64.5849Z" fill="#EABC8C"/>
<path fill-rule="evenodd" clip-rule="evenodd" d="M64.1111 63.8247C64.8092 60.6083 64.3085 59.148 60.416 60.198C60.4361 62.5602 60.3329 61.3816 61.8566 62.7523C62.8333 63.6315 61.9006 63.7605 64.1111 63.8251V63.8247Z" fill="#E6A659"/>
<path fill-rule="evenodd" clip-rule="evenodd" d="M83.6231 53.6658L85.0694 51.0067L84.3186 49.0518C82.5086 49.1706 81.5904 49.2936 81.8212 51.419C81.9833 52.9146 82.6726 53.3105 83.6231 53.6662V53.6658Z" fill="#E6A659"/>
<path fill-rule="evenodd" clip-rule="evenodd" d="M65.8891 59.4989C64.6884 60.1667 65.7384 63.0672 68.3402 62.6709C69.2998 60.0497 67.9629 58.3453 65.8891 59.4989Z" fill="#E6A659"/>
<path fill-rule="evenodd" clip-rule="evenodd" d="M43.0071 61.9657C45.2274 61.558 45.5068 60.2803 45.1291 58.0619C43.8673 57.7677 43.1373 58.2551 42.2236 59.3377C42.3618 60.5316 42.2445 59.832 42.5193 60.6747C42.8739 61.7642 42.6078 60.6728 43.0071 61.9657Z" fill="#E6A659"/>
<path fill-rule="evenodd" clip-rule="evenodd" d="M98.012 40.1706L98.3666 38.8086C100.123 37.9055 99.1091 38.8656 99.6363 37.8122C98.2599 36.6741 98.2166 36.9975 96.1694 37.2044L95.627 39.7588L98.012 40.1706Z" fill="#D38837"/>
<path fill-rule="evenodd" clip-rule="evenodd" d="M98.0117 40.171L102.003 41.279C101.555 38.9092 101.557 38.711 99.636 37.8125C99.1088 38.8659 100.122 37.9059 98.3663 38.809L98.0117 40.171Z" fill="#EABC8C"/>
<path fill-rule="evenodd" clip-rule="evenodd" d="M70.527 54.4168C71.2672 55.7074 70.8439 55.1543 72.0268 56.0859C73.5209 57.263 72.6311 55.9451 73.3155 57.7315C75.8213 57.9125 73.6352 57.8689 74.5375 57.1704L74.3701 55.8327C71.4213 55.7105 73.3258 55.0788 70.9677 53.4336C70.4556 54.0922 70.4776 52.7309 70.527 54.4168Z" fill="#6C320F"/>
<path fill-rule="evenodd" clip-rule="evenodd" d="M29.9109 59.8742C29.9568 57.5552 30.0403 57.7279 27.8291 57.3096C27.9916 59.3424 28.0664 59.476 29.9109 59.8742Z" fill="#B68B75"/>
<path fill-rule="evenodd" clip-rule="evenodd" d="M59.9971 45.7574C60.3835 47.3259 59.6156 46.2535 60.5509 47.3422C61.9331 47.28 61.5569 47.4675 62.3043 46.4312L61.4286 45.1048C60.4818 45.0817 60.6758 45.229 59.9971 45.757V45.7574Z" fill="#E6A659"/>
<path d="M15.7157 83.106C15.7734 82.9162 15.8588 82.7454 15.9662 82.5928C16.0771 82.4387 16.2054 82.3062 16.3591 82.1927C16.2912 82.0974 16.2095 82.0113 16.1124 81.9403C16.0175 81.8701 15.9009 81.815 15.7696 81.7751C15.5088 81.6954 15.2457 81.7068 14.9766 81.8078C14.7048 81.9103 14.441 82.0678 14.1752 82.2857C13.9126 82.5021 13.6601 82.7678 13.4157 83.081C13.1708 83.3934 12.9465 83.721 12.7373 84.0642C12.5308 84.405 12.3463 84.7474 12.1899 85.0952C12.0324 85.4402 11.9101 85.7599 11.8213 86.051C11.8096 86.089 11.7837 86.1831 11.7431 86.3346C11.7059 86.4838 11.6706 86.6637 11.6376 86.8721C11.6042 87.0809 11.5913 87.3067 11.5909 87.5527C11.5932 87.7995 11.627 88.0337 11.6915 88.2584C11.7583 88.4835 11.868 88.6858 12.0206 88.8677C12.1732 89.0468 12.3896 89.182 12.6678 89.2666C13.0023 89.3688 13.3063 89.4056 13.5823 89.3794C13.8568 89.3524 14.1084 89.2799 14.3377 89.1619C14.5662 89.0461 14.7792 88.895 14.9728 88.7132C15.1672 88.5291 15.3513 88.3332 15.5259 88.1236C16.2794 88.3753 17.0306 88.6346 17.7785 88.9041C17.6733 89.1133 17.5522 89.3388 17.4118 89.581C17.2724 89.8209 17.1111 90.057 16.9316 90.284C16.7509 90.514 16.5478 90.7262 16.323 90.9206C16.0979 91.1149 15.8485 91.2687 15.5699 91.3856C15.2203 91.5336 14.8547 91.6354 14.4751 91.6912C14.0963 91.7443 13.7174 91.7618 13.3386 91.7432C12.9594 91.7242 12.5938 91.6821 12.2381 91.6149C11.8794 91.5473 11.5491 91.4687 11.2455 91.3761C10.544 91.1624 9.93545 90.8803 9.42032 90.5269C8.90482 90.1762 8.52142 89.7354 8.27696 89.2044C8.02414 88.6707 7.91633 88.0902 7.9505 87.4612C7.98732 86.8303 8.11676 86.1508 8.34073 85.4167C8.52598 84.8089 8.74577 84.2145 8.99782 83.6333C9.25178 83.0548 9.54256 82.518 9.87129 82.0287C10.2008 81.5371 10.5747 81.1002 10.993 80.7187C11.4072 80.3383 11.8745 80.0411 12.3907 79.827C12.904 79.6129 13.4688 79.4945 14.0845 79.4717C14.7002 79.4489 15.3752 79.5495 16.1093 79.7735C16.6867 79.9496 17.195 80.1789 17.6376 80.4606C18.0821 80.7453 18.4382 81.0755 18.7058 81.4502C18.9753 81.8287 19.1484 82.2409 19.2263 82.6934C19.3018 83.1459 19.2699 83.631 19.1268 84.1465C19.0513 84.3944 18.9343 84.6051 18.7798 84.7854C18.6261 84.9623 18.4481 85.1016 18.2473 85.2064C18.0465 85.3115 17.8282 85.3749 17.5962 85.3985C17.3651 85.4224 17.1343 85.3989 16.9065 85.3294C16.6658 85.2561 16.457 85.1426 16.279 84.9919C16.101 84.8408 15.9548 84.6658 15.8466 84.4669C15.7385 84.268 15.6716 84.0513 15.6455 83.8189C15.6193 83.587 15.6424 83.3475 15.7157 83.1072V83.106ZM24.5119 87.7171C24.4158 87.6013 24.2955 87.495 24.1509 87.3937C24.0085 87.2954 23.854 87.2122 23.6877 87.1435C23.5207 87.0752 23.3484 87.0163 23.1745 86.9712C22.998 86.9256 22.8336 86.8945 22.6753 86.8797C22.5436 86.8672 22.3963 86.8774 22.2361 86.9135C22.079 86.9495 21.9283 86.9989 21.7833 87.0653C21.6417 87.1317 21.5176 87.2103 21.4082 87.2988C21.3012 87.3903 21.2321 87.4795 21.2048 87.5698L20.1403 93.024L17.0568 92.7377L18.683 84.4354L21.7681 84.6131L21.5559 85.6991C21.6671 85.5894 21.7969 85.474 21.9514 85.3556C22.1063 85.2368 22.2779 85.1335 22.4643 85.042C22.6541 84.9479 22.8545 84.8761 23.0671 84.8211C23.282 84.7695 23.5093 84.7535 23.7462 84.7755C23.9888 84.7983 24.2181 84.8803 24.4356 85.0257C24.6508 85.1681 24.8273 85.3305 24.9617 85.5154L24.5104 87.7175L24.5119 87.7171ZM33.4724 90.1697C33.6019 90.3208 33.7313 90.4696 33.8634 90.6207C33.9932 90.7691 34.1253 90.921 34.2529 91.0698C34.1595 91.3624 34.0031 91.6452 33.7852 91.922C33.5677 92.1957 33.3119 92.4436 33.0196 92.6652C32.7242 92.885 32.4042 93.0623 32.0599 93.1982C31.7156 93.3311 31.3698 93.4032 31.0259 93.4093C29.9228 93.4282 29.2402 93.0031 28.9794 92.1342C28.9278 92.2276 28.8762 92.3133 28.8246 92.3934C28.7733 92.4735 28.7133 92.5514 28.6408 92.6239C28.5888 92.6778 28.5106 92.7556 28.4066 92.8528C28.3022 92.9503 28.172 93.0479 28.0145 93.1432C27.8573 93.2384 27.6709 93.3212 27.4576 93.3907C27.2443 93.4605 26.996 93.4966 26.7105 93.5015C26.2603 93.5095 25.8728 93.4366 25.5444 93.2836C25.2187 93.1306 24.948 92.9177 24.7339 92.6485C24.5225 92.3771 24.3634 92.0567 24.2568 91.6878C24.1524 91.3192 24.0954 90.9202 24.0879 90.4893C24.0863 90.3834 24.086 90.2244 24.0905 90.0072C24.092 89.7928 24.1091 89.5464 24.1357 89.2682C24.1657 88.9899 24.2052 88.6904 24.261 88.3712C24.3133 88.0527 24.3904 87.7338 24.4906 87.4142C24.5912 87.0953 24.718 86.7886 24.8721 86.4948C25.0259 86.201 25.2119 85.9409 25.4309 85.712C25.6488 85.4835 25.9054 85.299 26.1996 85.1616C26.4964 85.0246 26.8366 84.9517 27.2203 84.9452C27.4189 84.9418 27.6072 84.9627 27.7848 85.0018C27.9659 85.0413 28.131 85.0914 28.2851 85.1521C28.437 85.2128 28.5786 85.2766 28.7038 85.3487C28.8325 85.4178 28.9422 85.4846 29.036 85.5495L29.1127 84.7752L32.1822 84.8602L31.7445 90.0695C31.7331 90.1841 31.73 90.303 31.735 90.4275C31.7395 90.5543 31.76 90.6674 31.7961 90.7702C31.8299 90.8727 31.8891 90.954 31.9696 91.0185C32.0501 91.0838 32.1594 91.1164 32.2968 91.1138C32.4289 91.1115 32.561 91.08 32.6874 91.017C32.8161 90.9566 32.9334 90.8803 33.0404 90.7888C33.1501 90.697 33.2413 90.5971 33.3134 90.4848C33.3885 90.3751 33.4424 90.2707 33.4724 90.1701V90.1697ZM28.8663 87.2517C28.8386 87.1993 28.7927 87.1336 28.7255 87.0554C28.6579 86.9772 28.5512 86.9393 28.4059 86.9419C28.2263 86.945 28.0581 87.0194 27.8964 87.1674C27.7374 87.3155 27.5977 87.5193 27.4808 87.7809C27.3635 88.0394 27.2708 88.3533 27.2055 88.7174C27.1376 89.0837 27.1072 89.4842 27.1148 89.9203C27.1198 90.2062 27.1448 90.4282 27.1873 90.5888C27.2302 90.7524 27.2822 90.8705 27.3414 90.949C27.4037 91.0272 27.4656 91.0739 27.532 91.091C27.5984 91.1058 27.6595 91.1126 27.7123 91.1119C27.871 91.1092 28.0395 91.0561 28.2206 90.9551C28.4013 90.8515 28.5307 90.6799 28.6139 90.4404L28.8663 87.2513V87.2517ZM42.7515 88.009C42.4694 88.0603 42.187 88.0823 41.8993 88.0811C41.6142 88.077 41.3454 88.0523 41.0926 88.0075C41.0296 88.5864 40.9089 89.1528 40.7362 89.7062C40.5608 90.2627 40.3057 90.7634 39.9735 91.217C39.638 91.668 39.2155 92.0453 38.7022 92.3532C38.1894 92.6607 37.5608 92.8554 36.816 92.9344C36.4079 92.9776 36.0439 92.9556 35.7231 92.8676C35.3993 92.7768 35.1229 92.6307 34.891 92.4261C34.6591 92.2219 34.4723 91.9679 34.3307 91.6661C34.1899 91.367 34.0973 91.0204 34.0555 90.6336C34.0361 90.4491 34.0255 90.2749 34.0267 90.1124C34.0251 89.9499 34.0145 89.7753 33.9951 89.5912L33.9913 84.6806L37.0825 84.1921L37.084 89.8322C37.0942 89.9298 37.1128 90.0236 37.1405 90.1109C37.166 90.1989 37.2032 90.2745 37.2525 90.3383C37.3045 90.402 37.3687 90.4514 37.4492 90.4825C37.5296 90.5136 37.6234 90.5228 37.7369 90.5106C38.0186 90.4806 38.2646 90.3664 38.4726 90.1686C38.6833 89.9704 38.862 89.7225 39.0086 89.4276C39.1581 89.1323 39.2781 88.8081 39.3681 88.455C39.4611 88.1047 39.5305 87.7539 39.5742 87.4111C39.2367 87.194 38.9516 86.9423 38.7189 86.6531C38.4859 86.3665 38.3223 86.0301 38.2285 85.6486C38.1803 85.4463 38.1753 85.2474 38.2122 85.0462C38.252 84.845 38.326 84.6613 38.4384 84.4977C38.5515 84.3314 38.6962 84.1936 38.8731 84.0812C39.0503 83.9693 39.2565 83.9021 39.485 83.8778C39.6903 83.8558 39.8836 83.8725 40.0711 83.9298C40.2552 83.9871 40.4215 84.0733 40.5669 84.191C40.7122 84.3086 40.8318 84.4529 40.9267 84.621C41.0224 84.7919 41.0793 84.9779 41.1013 85.1829C41.1203 85.3594 41.1336 85.5336 41.1385 85.7063C41.1438 85.8787 41.1499 86.0616 41.1571 86.2552C41.4866 86.2997 41.867 86.2993 42.2937 86.2537L42.7522 88.0098L42.7515 88.009ZM51.3374 88.7542C51.1016 89.0453 50.8446 89.3422 50.5706 89.6474C50.2961 89.9499 49.9867 90.2335 49.6443 90.4931C49.2989 90.7555 48.9113 90.9843 48.4839 91.1817C48.0568 91.3795 47.5743 91.5185 47.0387 91.6016C46.4503 91.6931 45.8965 91.7174 45.3761 91.6748C44.8571 91.6297 44.3952 91.5006 43.9871 91.2877C43.579 91.0724 43.237 90.7668 42.9606 90.3705C42.6854 89.9769 42.499 89.4671 42.4026 88.8445C42.3369 88.4213 42.2994 87.99 42.2963 87.5569C42.2929 87.1207 42.332 86.6998 42.411 86.294C42.4922 85.8847 42.6167 85.496 42.7845 85.1267C42.9489 84.7558 43.1713 84.424 43.4465 84.1291C43.7221 83.8345 44.0558 83.5847 44.4472 83.382C44.8363 83.1766 45.2929 83.0335 45.816 82.9523C46.423 82.8582 46.9415 82.8365 47.3732 82.8878C47.801 82.9364 48.1597 83.0575 48.4467 83.2461C48.7359 83.4367 48.958 83.6944 49.1205 84.0171C49.2807 84.3409 49.3964 84.7247 49.4655 85.1692C49.5012 85.3966 49.4602 85.6202 49.3467 85.8384C49.2332 86.0563 49.073 86.2666 48.8627 86.4629C48.6517 86.6588 48.4026 86.8474 48.1145 87.0262C47.8287 87.205 47.5326 87.366 47.2262 87.5151C46.9222 87.6613 46.6181 87.7915 46.3141 87.9031C46.01 88.0147 45.7314 88.1009 45.4793 88.1665C45.4812 88.2144 45.4827 88.2573 45.4861 88.2968C45.4869 88.3366 45.493 88.3757 45.4991 88.4152C45.5351 88.6456 45.6019 88.8358 45.698 88.9869C45.7967 89.1402 45.9117 89.2591 46.0506 89.3448C46.1869 89.431 46.3403 89.4845 46.513 89.5088C46.6827 89.5335 46.8615 89.5297 47.0444 89.5012C47.4293 89.4416 47.7744 89.3532 48.0773 89.2363C48.381 89.1194 48.6524 88.9891 48.8957 88.8468C49.1395 88.7071 49.357 88.5553 49.5494 88.3996C49.7419 88.2413 49.9226 88.0929 50.0885 87.9543L51.3377 88.7542H51.3374ZM45.3495 86.9328C45.5438 86.8896 45.7223 86.8159 45.8885 86.713C46.0518 86.6098 46.199 86.4879 46.327 86.3444C46.4545 86.1991 46.5612 86.043 46.6417 85.8726C46.7225 85.7022 46.7703 85.5283 46.7912 85.351C46.7263 85.1548 46.6572 84.9889 46.5832 84.8587C46.5088 84.7258 46.3907 84.6711 46.226 84.6966C46.0772 84.7201 45.9477 84.8021 45.838 84.9418C45.7287 85.0845 45.638 85.2595 45.5693 85.471C45.4975 85.6832 45.4432 85.9193 45.4053 86.1744C45.37 86.4314 45.3506 86.6838 45.3491 86.9328H45.3495ZM56.6803 80.9013C56.6442 80.6872 56.6518 80.4769 56.7012 80.275C56.7501 80.0707 56.8344 79.8847 56.954 79.7173C56.7027 79.6604 56.4442 79.6528 56.1777 79.6972C55.9298 79.739 55.7263 79.824 55.5707 79.9493C55.4124 80.0779 55.2951 80.2264 55.2112 80.3987C55.1296 80.5707 55.0799 80.751 55.0582 80.9427C55.0366 81.134 55.0408 81.3185 55.07 81.4931C55.1 81.6711 55.1448 81.8431 55.2101 82.0094C55.2754 82.1752 55.3718 82.3172 55.499 82.4334C55.6258 82.5492 55.7932 82.6338 56.0031 82.687C56.2126 82.7374 56.4757 82.7359 56.7889 82.6835L56.8705 84.1298C56.4055 84.208 56.0562 84.3337 55.8171 84.5079C55.5783 84.6822 55.4067 84.8746 55.3046 85.0826C55.1998 85.2907 55.152 85.4998 55.1528 85.7116C55.1554 85.9231 55.1668 86.1015 55.1907 86.245C55.2196 86.4147 55.2697 86.5859 55.3395 86.762C55.4094 86.9381 55.5028 87.0942 55.6242 87.227C55.7438 87.3625 55.8919 87.4635 56.068 87.536C56.2434 87.6062 56.4556 87.6218 56.7034 87.5797L56.9593 87.5368C57.2224 87.4741 57.4547 87.3705 57.6509 87.2301C57.8502 87.0896 58.0211 86.9241 58.1634 86.7313C58.3058 86.5407 58.4208 86.3312 58.5142 86.103C58.6079 85.8783 58.6816 85.6456 58.7359 85.4087C58.5514 85.3992 58.3756 85.4068 58.2059 85.4357C57.9971 85.4706 57.8115 85.545 57.6441 85.6558C57.4778 85.7671 57.3351 85.955 57.2098 86.2173L56.6549 85.9671C56.6883 85.2045 56.8765 84.6172 57.2239 84.2073C57.5712 83.7977 58.0252 83.5445 58.5863 83.45C58.8866 83.3999 59.1644 83.3801 59.4161 83.3915C59.6704 83.4025 59.9149 83.4211 60.148 83.4488C60.3807 83.4769 60.6077 83.5005 60.8328 83.516C61.0556 83.5323 61.2925 83.5194 61.5404 83.4777C61.7492 83.4428 61.9363 83.3737 62.0995 83.2738C62.2647 83.171 62.3895 83.0187 62.4761 82.816C62.5634 82.8551 62.653 82.8935 62.7426 82.9299C62.8314 82.9637 62.921 83.002 63.0079 83.0411C63.0159 83.3752 62.976 83.6827 62.8864 83.9658C62.7942 84.2498 62.6648 84.4996 62.4947 84.7156C62.3216 84.9327 62.1147 85.1096 61.8729 85.2497C61.6303 85.3867 61.3665 85.4793 61.0791 85.5275L60.9827 85.5439C60.9786 85.7595 60.9619 85.9796 60.933 86.207C60.9038 86.4318 60.8559 86.6572 60.7944 86.8823C60.7299 87.1078 60.6491 87.328 60.5481 87.5432C60.4448 87.7596 60.3169 87.9551 60.1594 88.1373C59.9233 88.4103 59.6609 88.6528 59.3686 88.8631C59.0786 89.073 58.7765 89.2526 58.4629 89.3987C58.149 89.5453 57.8309 89.666 57.5059 89.7605C57.184 89.855 56.8735 89.9256 56.5732 89.9765C56.5657 89.9776 56.5638 89.9833 56.5645 89.9886C55.9048 90.0995 55.316 90.1124 54.7937 90.0228C54.2721 89.9359 53.8211 89.762 53.4423 89.5009C53.063 89.2397 52.7563 88.8992 52.5164 88.4782C52.2773 88.0591 52.1121 87.569 52.018 87.0076C51.9804 86.7863 51.9728 86.5297 51.9914 86.2419C52.01 85.9542 52.0791 85.6615 52.196 85.3677C52.3156 85.0713 52.4857 84.7881 52.7134 84.5159C52.9385 84.2422 53.2434 84.0087 53.6256 83.8102C53.3413 83.7157 53.1063 83.6098 52.9222 83.4906C52.7381 83.3683 52.5859 83.2279 52.464 83.0631C52.3426 82.8984 52.2469 82.7128 52.1801 82.5066C52.111 82.3009 52.0548 82.0636 52.0096 81.7945C51.9523 81.4498 51.9759 81.0809 52.084 80.6872C52.1926 80.2936 52.3949 79.9158 52.691 79.5522C52.9848 79.1916 53.3762 78.8708 53.8659 78.5899C54.356 78.312 54.9531 78.1124 55.658 77.9943C56.8716 77.7904 57.8263 77.8986 58.5225 78.3188C59.2153 78.7391 59.6412 79.422 59.7999 80.3668L59.8014 80.3771C59.8378 80.5938 59.8325 80.8015 59.7809 81.0061C59.7312 81.2076 59.6465 81.391 59.5266 81.5561C59.4066 81.7212 59.2582 81.859 59.0843 81.9737C58.9071 82.0868 58.7127 82.1597 58.4963 82.1958C58.2822 82.2318 58.0719 82.2269 57.8704 82.1772C57.6657 82.1259 57.4828 82.0439 57.3184 81.9262C57.1559 81.8082 57.0162 81.6628 56.9039 81.4885C56.7911 81.3116 56.7156 81.1173 56.6795 80.9009L56.6803 80.9013ZM70.1551 78.4889C70.1278 78.2919 70.1338 78.1013 70.1676 77.918C70.2033 77.7316 70.2648 77.5574 70.3567 77.39C70.2553 77.3319 70.1449 77.2878 70.0272 77.2636C69.9114 77.2393 69.7831 77.2385 69.6464 77.2571C69.3765 77.2943 69.1419 77.4146 68.94 77.6189C68.7358 77.8261 68.5623 78.0793 68.4127 78.3883C68.2647 78.6947 68.1466 79.042 68.0555 79.4288C67.9644 79.8152 67.898 80.2062 67.8513 80.6052C67.8069 81.0011 67.7826 81.3895 67.7864 81.771C67.7879 82.1506 67.8107 82.4918 67.852 82.7932C67.8574 82.8327 67.8733 82.9288 67.8995 83.0836C67.9283 83.2343 67.9716 83.4128 68.0289 83.6158C68.0863 83.8193 68.1686 84.0296 68.2715 84.2536C68.377 84.4764 68.5057 84.6753 68.6583 84.8522C68.8136 85.0287 68.9981 85.1662 69.2126 85.2675C69.4266 85.3666 69.6795 85.3981 69.9676 85.359C70.3138 85.3115 70.6057 85.2182 70.8452 85.0781C71.0829 84.9388 71.281 84.7676 71.4401 84.5637C71.5995 84.3629 71.7289 84.1367 71.8288 83.8907C71.9282 83.642 72.0136 83.3873 72.0843 83.1235C72.8738 83.0366 73.6646 82.9576 74.4564 82.8889C74.4484 83.1227 74.4329 83.3786 74.4074 83.6572C74.3809 83.9336 74.3338 84.2152 74.2658 84.4965C74.1983 84.7812 74.1026 85.0591 73.9796 85.3294C73.8562 85.6 73.6945 85.8441 73.4903 86.0673C73.2352 86.3482 72.9456 86.5935 72.6244 86.8038C72.3029 87.0106 71.9662 87.1853 71.6143 87.3269C71.262 87.4685 70.912 87.5835 70.5609 87.6715C70.2071 87.7604 69.8742 87.8272 69.5599 87.8705C68.8333 87.9703 68.1626 87.9692 67.5468 87.8636C66.9319 87.7611 66.3993 87.5216 65.9548 87.142C65.5015 86.7628 65.1603 86.2811 64.928 85.6957C64.6975 85.1077 64.5305 84.4362 64.4261 83.6754C64.3396 83.0461 64.2906 82.4144 64.2758 81.7808C64.264 81.1492 64.3035 80.5399 64.3973 79.9584C64.4907 79.3738 64.6467 78.8203 64.8668 78.2987C65.084 77.7798 65.3835 77.314 65.7627 76.9037C66.1393 76.4945 66.6024 76.1506 67.1521 75.8715C67.7013 75.5933 68.3565 75.4016 69.1169 75.2976C69.7148 75.2156 70.2724 75.211 70.7925 75.2813C71.3152 75.3534 71.7772 75.5041 72.1765 75.7326C72.5796 75.9626 72.9099 76.2652 73.1703 76.6437C73.4281 77.0225 73.6027 77.4765 73.6885 78.0045C73.7238 78.2611 73.7059 78.5014 73.6414 78.73C73.5757 78.9551 73.4725 79.1563 73.3343 79.3354C73.1961 79.5146 73.0245 79.6642 72.8237 79.7826C72.6237 79.901 72.4046 79.9762 72.1689 80.0085C71.9195 80.043 71.6823 80.0275 71.4571 79.9648C71.2324 79.9022 71.0263 79.8046 70.8448 79.6691C70.6634 79.534 70.5119 79.365 70.3912 79.1654C70.2701 78.9649 70.1908 78.7383 70.157 78.4897L70.1551 78.4889ZM80.7635 80.4936C80.6462 80.3998 80.5069 80.3194 80.3448 80.2495C80.1858 80.1823 80.0176 80.1315 79.8411 80.0981C79.6638 80.0647 79.4831 80.0423 79.3036 80.0328C79.1214 80.024 78.9539 80.0267 78.796 80.0442C78.6647 80.059 78.5223 80.0984 78.3732 80.166C78.2263 80.2328 78.0885 80.3118 77.9602 80.4063C77.8349 80.5001 77.7294 80.6022 77.6401 80.7104C77.554 80.8216 77.5042 80.9229 77.4963 81.0167L77.5547 86.5733L74.4769 86.9157L74.3934 78.4559L77.4511 78.0068L77.4625 79.1134C77.5494 78.9835 77.6538 78.8442 77.781 78.6969C77.9089 78.55 78.0558 78.4134 78.2198 78.2862C78.3864 78.156 78.5686 78.0452 78.7657 77.9484C78.9657 77.8542 79.1851 77.7927 79.4216 77.7662C79.6638 77.7392 79.9045 77.7737 80.1474 77.8724C80.387 77.9681 80.5927 78.0915 80.7616 78.246L80.7639 80.4936H80.7635ZM88.7785 82.474C88.9171 82.6167 89.056 82.7572 89.1945 82.8999C89.3358 83.04 89.4747 83.1831 89.6129 83.3236C89.5252 83.6568 89.3828 83.9681 89.1805 84.2631C88.9778 84.558 88.7364 84.8215 88.46 85.053C88.1833 85.2846 87.8853 85.4729 87.5649 85.6179C87.2441 85.7625 86.9215 85.8464 86.6 85.8722C86.0453 85.9159 85.5929 85.8324 85.244 85.616C84.8951 85.4019 84.6397 85.0933 84.4745 84.6871C84.3906 84.9008 84.2859 85.0838 84.1602 85.2402C84.0877 85.3256 83.9966 85.4178 83.8934 85.5192C83.7867 85.6205 83.6595 85.7211 83.5077 85.8206C83.3562 85.9178 83.1801 86.0036 82.9808 86.0749C82.7796 86.1493 82.5553 86.1937 82.3047 86.2135C81.8769 86.2473 81.5102 86.2074 81.2035 86.0909C80.8998 85.977 80.647 85.8031 80.4428 85.5697C80.2382 85.3366 80.0806 85.0542 79.9717 84.7201C79.8604 84.3895 79.7914 84.0201 79.7591 83.617C79.7439 83.4268 79.7393 83.2336 79.7428 83.0419L79.8665 77.7058L82.906 77.6025L82.7948 82.8578C82.7899 83.1319 82.832 83.3566 82.9231 83.5354C83.0142 83.7138 83.1615 83.7954 83.3672 83.7791C83.5441 83.765 83.6888 83.6868 83.8 83.5399C83.9104 83.3961 84 83.2192 84.0627 83.007L84.1914 77.3622L87.2195 77.2495L87.0972 82.7371C87.0908 82.8225 87.0976 82.9094 87.1177 82.9929C87.1378 83.0787 87.1701 83.1531 87.2149 83.2157C87.2601 83.2784 87.3223 83.3266 87.3994 83.3604C87.4791 83.3938 87.5782 83.4044 87.697 83.3953C88.2907 83.3482 88.6509 83.0408 88.7789 82.4736L88.7785 82.474ZM97.8313 80.4116C97.8298 80.2742 97.8173 80.1315 97.7998 79.9861C97.782 79.8411 97.752 79.7116 97.7106 79.5951C97.6692 79.4789 97.6157 79.3871 97.5432 79.3138C97.4737 79.2432 97.3834 79.2071 97.2691 79.2083C97.137 79.2098 97.0186 79.2827 96.9092 79.4292C96.8022 79.5757 96.7118 79.7545 96.6348 79.9591L96.1591 85.3753L93.1022 85.4102L93.5725 80.4602C93.5847 80.3809 93.5942 80.2723 93.5979 80.1345C93.604 79.9944 93.5919 79.8623 93.5638 79.7329C93.5361 79.603 93.4845 79.493 93.4119 79.3958C93.3368 79.3013 93.2305 79.255 93.0931 79.2569C92.9128 79.2588 92.7602 79.332 92.6322 79.4789C92.5039 79.6254 92.4007 79.8073 92.3156 80.0199L91.8218 85.4254L88.7462 85.4607L89.494 77.0346L92.6072 76.8589L92.5104 77.8736C92.7583 77.5714 93.0445 77.3436 93.3653 77.1838C93.6887 77.024 94.0349 76.9432 94.4054 76.9386C95.398 76.9272 96.051 77.3175 96.3641 78.1078C96.6431 77.7259 96.989 77.431 97.3997 77.2226C97.8127 77.0111 98.2352 76.9056 98.6717 76.9007C99.0684 76.8961 99.4105 76.9477 99.6974 77.0559C99.9821 77.1668 100.217 77.3254 100.402 77.5297C100.587 77.7365 100.725 77.9894 100.818 78.29C100.909 78.5906 100.958 78.9315 100.962 79.3149C100.965 79.5879 100.95 79.8688 100.919 80.1599C100.884 80.4515 100.848 80.735 100.809 81.0106C100.767 81.2839 100.731 81.544 100.699 81.785C100.664 82.0261 100.649 82.2383 100.651 82.4155C100.653 82.5875 100.692 82.7405 100.77 82.8775C100.848 83.0111 100.992 83.076 101.204 83.0738C101.357 83.0719 101.487 83.0544 101.592 83.0165C101.698 82.9781 101.784 82.9216 101.858 82.8494C101.928 82.7746 101.993 82.6892 102.048 82.5879C102.102 82.4892 102.157 82.3723 102.208 82.2394L102.991 83.144C102.884 83.4705 102.729 83.7741 102.525 84.057C102.325 84.3424 102.092 84.5857 101.829 84.7953C101.567 85.0025 101.28 85.17 100.973 85.2922C100.662 85.4148 100.35 85.4767 100.032 85.4805C99.5296 85.4862 99.1208 85.4193 98.8069 85.2774C98.496 85.1354 98.2496 84.9475 98.0723 84.719C97.8924 84.4882 97.7728 84.2278 97.7113 83.9343C97.6472 83.6409 97.6149 83.3478 97.6115 83.0563C97.6092 82.8578 97.6199 82.6463 97.6441 82.4209C97.6681 82.1957 97.6916 81.9676 97.7208 81.7345C97.7474 81.5041 97.7736 81.2729 97.7975 81.0478C97.8214 80.8231 97.8324 80.6109 97.8302 80.412L97.8313 80.4116ZM106.237 85.8548C105.907 85.8278 105.591 85.7625 105.292 85.6581C104.992 85.5515 104.708 85.4224 104.442 85.2656C104.176 85.1062 103.922 84.9338 103.683 84.7444C103.443 84.555 103.222 84.3644 103.018 84.1674L104.972 73.6213L108.088 73.6064L107.3 77.8128C107.563 77.675 107.816 77.576 108.059 77.516C108.303 77.456 108.565 77.437 108.842 77.4598C109.264 77.4944 109.615 77.5946 109.896 77.7608C110.18 77.9275 110.405 78.137 110.572 78.3895C110.74 78.6423 110.863 78.9312 110.935 79.2553C111.009 79.5803 111.048 79.9204 111.051 80.2791L111.467 80.3133C111.599 80.3239 111.764 80.3266 111.964 80.319C112.164 80.3114 112.372 80.2962 112.586 80.2742C112.801 80.2518 113.007 80.2264 113.204 80.1918C113.403 80.1573 113.565 80.1201 113.688 80.0768L113.239 81.9019C112.851 82.0481 112.449 82.1536 112.041 82.2136C111.63 82.2728 111.228 82.28 110.833 82.2349L110.794 82.4497C110.742 82.6976 110.67 82.9599 110.581 83.2397C110.493 83.5164 110.375 83.7912 110.225 84.0581C110.079 84.325 109.894 84.5751 109.672 84.815C109.449 85.0515 109.177 85.2554 108.855 85.4254C108.533 85.5936 108.157 85.7196 107.728 85.8016C107.302 85.8836 106.804 85.9018 106.236 85.8555L106.237 85.8548ZM106.84 83.5616C107.033 83.5771 107.203 83.5005 107.358 83.3353C107.509 83.1672 107.643 82.9629 107.756 82.7143C107.869 82.4687 107.964 82.2083 108.04 81.9331C108.116 81.6548 108.17 81.4122 108.208 81.2031C107.925 80.9886 107.678 80.7612 107.461 80.5263C107.244 80.2882 107.067 80.0483 106.928 79.8054L106.426 82.553C106.405 82.6444 106.383 82.7382 106.368 82.8354C106.349 82.9345 106.336 83.037 106.327 83.1421C106.347 83.3961 106.519 83.535 106.84 83.5612V83.5616ZM118.231 85.1961C118.06 85.4945 117.832 85.7553 117.548 85.9834C117.264 86.2116 116.955 86.3999 116.62 86.5479C116.287 86.6967 115.938 86.7965 115.583 86.8493C115.225 86.9013 114.887 86.8956 114.57 86.8345C114.159 86.7552 113.826 86.6261 113.564 86.4435C113.303 86.2609 113.1 86.0389 112.96 85.7769C112.817 85.512 112.738 85.2113 112.714 84.8693C112.694 84.5288 112.719 84.1617 112.794 83.7719C112.827 83.6029 112.87 83.4359 112.923 83.2712L115.479 74.6773L118.6 75.0182C118.399 75.6669 118.187 76.362 117.963 77.103C117.739 77.8436 117.514 78.5929 117.288 79.3472C117.061 80.1041 116.835 80.8508 116.611 81.5945C116.387 82.3354 116.173 83.0301 115.966 83.6773C115.929 83.77 115.903 83.8516 115.891 83.9165C115.872 84.0125 115.861 84.1101 115.859 84.2069C115.859 84.3067 115.872 84.3925 115.9 84.4681C115.929 84.5436 115.978 84.6123 116.045 84.6685C116.11 84.7239 116.199 84.7634 116.311 84.785C116.441 84.8101 116.573 84.8086 116.711 84.7809C116.845 84.7531 116.975 84.7084 117.101 84.6434C117.224 84.5812 117.332 84.5053 117.427 84.421C117.519 84.3337 117.593 84.2456 117.646 84.1534L118.231 85.1965L118.231 85.1961ZM126.023 88.701C125.67 88.8274 125.296 88.9474 124.904 89.0658C124.513 89.1816 124.1 89.2632 123.672 89.3069C123.241 89.3513 122.791 89.346 122.323 89.2925C121.856 89.2393 121.372 89.1072 120.871 88.8999C120.32 88.6726 119.835 88.4057 119.412 88.0986C118.992 87.7904 118.665 87.4404 118.427 87.046C118.189 86.6504 118.056 86.2116 118.027 85.7287C117.996 85.2497 118.102 84.7175 118.342 84.1351C118.506 83.7392 118.699 83.3513 118.921 82.9796C119.145 82.605 119.397 82.2656 119.675 81.96C119.957 81.6525 120.266 81.3853 120.6 81.1568C120.934 80.9256 121.296 80.7574 121.684 80.6489C122.073 80.5403 122.488 80.5004 122.928 80.5304C123.367 80.557 123.832 80.672 124.321 80.8747C124.888 81.1093 125.343 81.3606 125.685 81.6286C126.025 81.8924 126.269 82.1825 126.416 82.4922C126.564 82.8054 126.62 83.1413 126.591 83.5012C126.56 83.8611 126.46 84.2487 126.287 84.6651C126.199 84.878 126.048 85.0473 125.838 85.1749C125.627 85.3028 125.381 85.3985 125.1 85.4569C124.817 85.5146 124.507 85.5465 124.168 85.5492C123.831 85.5533 123.494 85.537 123.155 85.5055C122.819 85.4725 122.492 85.4258 122.174 85.3632C121.856 85.3005 121.573 85.2292 121.323 85.1544C121.3 85.1965 121.28 85.2333 121.262 85.269C121.242 85.3039 121.227 85.3404 121.212 85.3772C121.123 85.5928 121.081 85.7902 121.084 85.969C121.089 86.1512 121.125 86.3122 121.199 86.4579C121.271 86.6022 121.374 86.7278 121.509 86.8383C121.641 86.9476 121.796 87.0372 121.967 87.1082C122.327 87.257 122.668 87.3607 122.987 87.4183C123.307 87.4764 123.607 87.506 123.889 87.511C124.17 87.5182 124.434 87.5015 124.68 87.4685C124.926 87.4328 125.158 87.4001 125.372 87.3682L126.023 88.7006V88.701ZM121.854 84.0334C122.042 84.0972 122.233 84.1276 122.428 84.1253C122.621 84.1222 122.811 84.0942 122.994 84.0387C123.179 83.9807 123.351 83.9032 123.508 83.7992C123.666 83.6956 123.797 83.5722 123.907 83.4314C123.953 83.2298 123.981 83.0521 123.985 82.9022C123.991 82.7503 123.918 82.6422 123.764 82.5788C123.625 82.5211 123.472 82.5241 123.306 82.5867C123.138 82.652 122.97 82.7542 122.801 82.8988C122.63 83.0426 122.46 83.2165 122.296 83.4143C122.132 83.6158 121.984 83.8212 121.853 84.0334H121.854Z" fill="#3B1B0C"/>
<path fill-rule="evenodd" clip-rule="evenodd" d="M81.0679 116.964C75.5587 113.674 69.129 110.902 62.0699 108.942C55.7312 107.182 49.4898 106.246 43.6359 106.058C41.7853 106.855 40.0927 107.78 38.583 108.825C41.6343 111.551 45.3483 114.049 48.8281 115.64C59.492 120.512 70.8987 120.702 81.0679 116.964Z" fill="#AD6D4A"/>
<path d="M78.9504 116.756C76.6617 115.476 74.2288 114.286 71.6714 113.206C68.572 111.897 65.2808 110.746 61.8344 109.79C58.7357 108.93 55.6647 108.268 52.6582 107.798C49.64 107.325 46.6783 107.043 43.8089 106.943C42.9563 107.317 42.1511 107.71 41.3969 108.123C40.9281 108.381 40.4737 108.648 40.0348 108.922C41.3046 109.994 42.675 111.022 44.0829 111.959C45.7783 113.087 47.5187 114.075 49.1932 114.84C54.3311 117.187 59.6452 118.426 64.902 118.641C69.6861 118.838 74.427 118.187 78.9504 116.756ZM72.3536 111.587C75.625 112.967 78.6934 114.522 81.5184 116.21L83.1021 117.156L81.3703 117.792C76.0991 119.729 70.4973 120.633 64.8329 120.4C59.3521 120.175 53.8141 118.885 48.4617 116.44C46.692 115.631 44.871 114.599 43.1108 113.428C41.3187 112.236 39.574 110.89 37.9964 109.481L37.165 108.738L38.0825 108.102C38.8645 107.56 39.6886 107.053 40.55 106.581C41.4375 106.097 42.7407 105.598 43.6771 105.194L43.7588 105.183L43.9061 105.188C46.9049 105.284 49.763 105.567 52.9266 106.061C56.0101 106.543 59.1479 107.219 62.3032 108.095C65.8149 109.07 69.1774 110.246 72.3532 111.587L72.3536 111.587Z" fill="#3B1B0C"/>
<path fill-rule="evenodd" clip-rule="evenodd" d="M62.0691 108.943C68.768 110.802 75.5584 113.674 81.0672 116.965C83.1326 116.206 85.1479 115.284 87.0949 114.207C82.4657 111.806 77.3061 109.763 71.757 108.223C65.9267 106.604 49.7867 103.731 44.3291 106.084C50.183 106.272 55.3703 107.083 62.0695 108.943L62.0691 108.943Z" fill="#D38837"/>
<path d="M62.158 108.622C65.5156 109.554 68.8978 110.741 72.1317 112.106C75.3196 113.452 78.3648 114.974 81.1002 116.598C82.0822 116.233 83.0468 115.834 83.9894 115.402C84.7938 115.034 85.5924 114.639 86.3832 114.215C84.2175 113.116 81.9372 112.094 79.5579 111.166C77.032 110.181 74.3956 109.3 71.6686 108.543C68.2324 107.589 61.1949 106.197 54.8938 105.706C51.6516 105.453 48.6129 105.438 46.382 105.844C48.5856 105.975 50.7288 106.205 52.9347 106.558C55.8144 107.019 58.7985 107.69 62.1583 108.622H62.158ZM71.8735 112.718C68.6682 111.365 65.3132 110.188 61.9807 109.263C58.6417 108.337 55.6815 107.671 52.8303 107.215C49.9787 106.759 47.2312 106.509 44.3188 106.416L42.8281 106.369L44.1974 105.778C46.4792 104.794 50.539 104.698 54.9428 105.042C61.2864 105.536 68.3789 106.94 71.8455 107.903C74.5995 108.667 77.2578 109.554 79.7989 110.546C82.4049 111.562 84.8936 112.691 87.2468 113.911L87.7991 114.198L87.2547 114.499C86.2803 115.038 85.2815 115.542 84.2642 116.007C83.2438 116.474 82.2143 116.899 81.1811 117.278L81.0334 117.333L80.896 117.25C78.1514 115.611 75.0854 114.075 71.8728 112.719L71.8735 112.718Z" fill="#3B1B0C"/>
<path fill-rule="evenodd" clip-rule="evenodd" d="M71.7575 108.222C79.3234 110.323 82.4665 111.805 87.0954 114.206C89.6691 112.782 92.1244 111.086 94.4237 109.133C91.1018 107.696 93.1213 107.983 83.8509 105.41C74.5806 102.836 57.2604 100.748 47.2119 104.698C55.3476 103.851 64.1916 106.121 71.7575 108.222V108.222Z" fill="#E6A659"/>
<path d="M71.9915 107.375C75.8115 108.436 78.5184 109.341 80.8553 110.285C83.0589 111.175 84.9254 112.095 87.0812 113.208C88.193 112.577 89.292 111.886 90.3723 111.138C91.1885 110.573 91.9914 109.976 92.779 109.347L92.2411 109.077C91.0408 108.466 90.4137 108.146 83.6158 106.258C78.4463 104.823 70.7445 103.54 63.2299 103.394C60.2876 103.338 57.3771 103.454 54.6656 103.805C56.3951 103.952 58.1272 104.189 59.8457 104.487C64.0479 105.216 68.1811 106.317 71.9911 107.375L71.9915 107.375ZM80.2001 111.919C77.9171 110.997 75.2679 110.11 71.5227 109.071C67.7677 108.029 63.6945 106.943 59.5496 106.224C55.4438 105.512 51.2758 105.161 47.3013 105.574L41.083 106.297L46.8913 103.879C51.3893 102.111 57.2739 101.521 63.2576 101.637C70.9355 101.786 78.8035 103.097 84.085 104.563C91.0746 106.503 91.7499 106.848 93.0413 107.506C93.4813 107.729 93.9941 107.991 94.7716 108.327L96.0706 108.89L94.9917 109.806C93.8283 110.796 92.6192 111.723 91.3722 112.587C90.1336 113.444 88.8471 114.241 87.5192 114.976L87.1062 115.205L86.6925 114.989C84.3985 113.8 82.4751 112.838 80.2005 111.919L80.2001 111.919Z" fill="#3B1B0C"/>
</svg>
